<?xml version="1.0" encoding="utf-8" standalone="no"?>
<!DOCTYPE svg PUBLIC "-//W3C//DTD SVG 1.1//EN"
  "http://www.w3.org/Graphics/SVG/1.1/DTD/svg11.dtd">
<svg xmlns:xlink="http://www.w3.org/1999/xlink" width="864pt" height="432pt" viewBox="0 0 864 432" xmlns="http://www.w3.org/2000/svg" version="1.1">
 <metadata>
  <rdf:RDF xmlns:dc="http://purl.org/dc/elements/1.1/" xmlns:cc="http://creativecommons.org/ns#" xmlns:rdf="http://www.w3.org/1999/02/22-rdf-syntax-ns#">
   <cc:Work>
    <dc:type rdf:resource="http://purl.org/dc/dcmitype/StillImage"/>
    <dc:date>2025-07-22T09:59:45.033080</dc:date>
    <dc:format>image/svg+xml</dc:format>
    <dc:creator>
     <cc:Agent>
      <dc:title>Matplotlib v3.9.2, https://matplotlib.org/</dc:title>
     </cc:Agent>
    </dc:creator>
   </cc:Work>
  </rdf:RDF>
 </metadata>
 <defs>
  <style type="text/css">*{stroke-linejoin: round; stroke-linecap: butt}</style>
 </defs>
 <g id="figure_1">
  <g id="patch_1">
   <path d="M 0 432 
L 864 432 
L 864 0 
L 0 0 
z
" style="fill: #ffffff"/>
  </g>
  <g id="axes_1">
   <g id="patch_2">
    <path d="M 58.478478 207.490063 
L 828.432849 207.490063 
L 828.432849 84.88 
L 58.478478 84.88 
z
" style="fill: #ffffff"/>
   </g>
   <g id="patch_3">
    <path d="M 61.583132 207.490063 
L 64.687787 207.490063 
L 64.687787 162.959692 
L 61.583132 162.959692 
z
" clip-path="url(#p1276e6a990)" style="fill: #9467bd"/>
   </g>
   <g id="patch_4">
    <path d="M 74.001751 207.490063 
L 77.106406 207.490063 
L 77.106406 171.835791 
L 74.001751 171.835791 
z
" clip-path="url(#p1276e6a990)" style="fill: #9467bd"/>
   </g>
   <g id="patch_5">
    <path d="M 86.42037 207.490063 
L 89.525025 207.490063 
L 89.525025 170.903218 
L 86.42037 170.903218 
z
" clip-path="url(#p1276e6a990)" style="fill: #9467bd"/>
   </g>
   <g id="patch_6">
    <path d="M 98.838989 207.490063 
L 101.943644 207.490063 
L 101.943644 170.836605 
L 98.838989 170.836605 
z
" clip-path="url(#p1276e6a990)" style="fill: #9467bd"/>
   </g>
   <g id="patch_7">
    <path d="M 111.257608 207.490063 
L 114.362263 207.490063 
L 114.362263 171.169667 
L 111.257608 171.169667 
z
" clip-path="url(#p1276e6a990)" style="fill: #9467bd"/>
   </g>
   <g id="patch_8">
    <path d="M 123.676227 207.490063 
L 126.780881 207.490063 
L 126.780881 164.591695 
L 123.676227 164.591695 
z
" clip-path="url(#p1276e6a990)" style="fill: #9467bd"/>
   </g>
   <g id="patch_9">
    <path d="M 136.094846 207.490063 
L 139.1995 207.490063 
L 139.1995 168.088845 
L 136.094846 168.088845 
z
" clip-path="url(#p1276e6a990)" style="fill: #9467bd"/>
   </g>
   <g id="patch_10">
    <path d="M 148.513464 207.490063 
L 151.618119 207.490063 
L 151.618119 167.622558 
L 148.513464 167.622558 
z
" clip-path="url(#p1276e6a990)" style="fill: #9467bd"/>
   </g>
   <g id="patch_11">
    <path d="M 160.932083 207.490063 
L 164.036738 207.490063 
L 164.036738 154.633146 
L 160.932083 154.633146 
z
" clip-path="url(#p1276e6a990)" style="fill: #9467bd"/>
   </g>
   <g id="patch_12">
    <path d="M 173.350702 207.490063 
L 176.455357 207.490063 
L 176.455357 157.280987 
L 173.350702 157.280987 
z
" clip-path="url(#p1276e6a990)" style="fill: #9467bd"/>
   </g>
   <g id="patch_13">
    <path d="M 185.769321 207.490063 
L 188.873976 207.490063 
L 188.873976 155.815515 
L 185.769321 155.815515 
z
" clip-path="url(#p1276e6a990)" style="fill: #9467bd"/>
   </g>
   <g id="patch_14">
    <path d="M 198.18794 207.490063 
L 201.292595 207.490063 
L 201.292595 155.648984 
L 198.18794 155.648984 
z
" clip-path="url(#p1276e6a990)" style="fill: #9467bd"/>
   </g>
   <g id="patch_15">
    <path d="M 210.606559 207.490063 
L 213.711214 207.490063 
L 213.711214 182.127402 
L 210.606559 182.127402 
z
" clip-path="url(#p1276e6a990)" style="fill: #9467bd"/>
   </g>
   <g id="patch_16">
    <path d="M 223.025178 207.490063 
L 226.129833 207.490063 
L 226.129833 189.637947 
L 223.025178 189.637947 
z
" clip-path="url(#p1276e6a990)" style="fill: #9467bd"/>
   </g>
   <g id="patch_17">
    <path d="M 235.443797 207.490063 
L 238.548451 207.490063 
L 238.548451 154.033634 
L 235.443797 154.033634 
z
" clip-path="url(#p1276e6a990)" style="fill: #9467bd"/>
   </g>
   <g id="patch_18">
    <path d="M 247.862416 207.490063 
L 250.96707 207.490063 
L 250.96707 176.315473 
L 247.862416 176.315473 
z
" clip-path="url(#p1276e6a990)" style="fill: #9467bd"/>
   </g>
   <g id="patch_19">
    <path d="M 260.281034 207.490063 
L 263.385689 207.490063 
L 263.385689 153.750532 
L 260.281034 153.750532 
z
" clip-path="url(#p1276e6a990)" style="fill: #9467bd"/>
   </g>
   <g id="patch_20">
    <path d="M 272.699653 207.490063 
L 275.804308 207.490063 
L 275.804308 153.500735 
L 272.699653 153.500735 
z
" clip-path="url(#p1276e6a990)" style="fill: #9467bd"/>
   </g>
   <g id="patch_21">
    <path d="M 285.118272 207.490063 
L 288.222927 207.490063 
L 288.222927 159.096175 
L 285.118272 159.096175 
z
" clip-path="url(#p1276e6a990)" style="fill: #9467bd"/>
   </g>
   <g id="patch_22">
    <path d="M 297.536891 207.490063 
L 300.641546 207.490063 
L 300.641546 152.384978 
L 297.536891 152.384978 
z
" clip-path="url(#p1276e6a990)" style="fill: #9467bd"/>
   </g>
   <g id="patch_23">
    <path d="M 309.95551 207.490063 
L 313.060165 207.490063 
L 313.060165 175.882492 
L 309.95551 175.882492 
z
" clip-path="url(#p1276e6a990)" style="fill: #9467bd"/>
   </g>
   <g id="patch_24">
    <path d="M 322.374129 207.490063 
L 325.478784 207.490063 
L 325.478784 152.884571 
L 322.374129 152.884571 
z
" clip-path="url(#p1276e6a990)" style="fill: #9467bd"/>
   </g>
   <g id="patch_25">
    <path d="M 334.792748 207.490063 
L 337.897403 207.490063 
L 337.897403 169.187949 
L 334.792748 169.187949 
z
" clip-path="url(#p1276e6a990)" style="fill: #9467bd"/>
   </g>
   <g id="patch_26">
    <path d="M 347.211367 207.490063 
L 350.316021 207.490063 
L 350.316021 156.848007 
L 347.211367 156.848007 
z
" clip-path="url(#p1276e6a990)" style="fill: #9467bd"/>
   </g>
   <g id="patch_27">
    <path d="M 359.629986 207.490063 
L 362.73464 207.490063 
L 362.73464 156.215189 
L 359.629986 156.215189 
z
" clip-path="url(#p1276e6a990)" style="fill: #9467bd"/>
   </g>
   <g id="patch_28">
    <path d="M 372.048604 207.490063 
L 375.153259 207.490063 
L 375.153259 162.62663 
L 372.048604 162.62663 
z
" clip-path="url(#p1276e6a990)" style="fill: #9467bd"/>
   </g>
   <g id="patch_29">
    <path d="M 384.467223 207.490063 
L 387.571878 207.490063 
L 387.571878 135.248945 
L 384.467223 135.248945 
z
" clip-path="url(#p1276e6a990)" style="fill: #9467bd"/>
   </g>
   <g id="patch_30">
    <path d="M 396.885842 207.490063 
L 399.990497 207.490063 
L 399.990497 112.783923 
L 396.885842 112.783923 
z
" clip-path="url(#p1276e6a990)" style="fill: #9467bd"/>
   </g>
   <g id="patch_31">
    <path d="M 409.304461 207.490063 
L 412.409116 207.490063 
L 412.409116 150.752975 
L 409.304461 150.752975 
z
" clip-path="url(#p1276e6a990)" style="fill: #9467bd"/>
   </g>
   <g id="patch_32">
    <path d="M 421.72308 207.490063 
L 424.827735 207.490063 
L 424.827735 178.263885 
L 421.72308 178.263885 
z
" clip-path="url(#p1276e6a990)" style="fill: #9467bd"/>
   </g>
   <g id="patch_33">
    <path d="M 434.141699 207.490063 
L 437.246354 207.490063 
L 437.246354 152.434937 
L 434.141699 152.434937 
z
" clip-path="url(#p1276e6a990)" style="fill: #9467bd"/>
   </g>
   <g id="patch_34">
    <path d="M 446.560318 207.490063 
L 449.664973 207.490063 
L 449.664973 166.34027 
L 446.560318 166.34027 
z
" clip-path="url(#p1276e6a990)" style="fill: #9467bd"/>
   </g>
   <g id="patch_35">
    <path d="M 458.978937 207.490063 
L 462.083591 207.490063 
L 462.083591 156.498292 
L 458.978937 156.498292 
z
" clip-path="url(#p1276e6a990)" style="fill: #9467bd"/>
   </g>
   <g id="patch_36">
    <path d="M 471.397556 207.490063 
L 474.50221 207.490063 
L 474.50221 153.584001 
L 471.397556 153.584001 
z
" clip-path="url(#p1276e6a990)" style="fill: #9467bd"/>
   </g>
   <g id="patch_37">
    <path d="M 483.816175 207.490063 
L 486.920829 207.490063 
L 486.920829 154.499921 
L 483.816175 154.499921 
z
" clip-path="url(#p1276e6a990)" style="fill: #9467bd"/>
   </g>
   <g id="patch_38">
    <path d="M 496.234793 207.490063 
L 499.339448 207.490063 
L 499.339448 175.11645 
L 496.234793 175.11645 
z
" clip-path="url(#p1276e6a990)" style="fill: #9467bd"/>
   </g>
   <g id="patch_39">
    <path d="M 508.653412 207.490063 
L 511.758067 207.490063 
L 511.758067 155.182698 
L 508.653412 155.182698 
z
" clip-path="url(#p1276e6a990)" style="fill: #9467bd"/>
   </g>
   <g id="patch_40">
    <path d="M 521.072031 207.490063 
L 524.176686 207.490063 
L 524.176686 156.115271 
L 521.072031 156.115271 
z
" clip-path="url(#p1276e6a990)" style="fill: #9467bd"/>
   </g>
   <g id="patch_41">
    <path d="M 533.49065 207.490063 
L 536.595305 207.490063 
L 536.595305 155.94874 
L 533.49065 155.94874 
z
" clip-path="url(#p1276e6a990)" style="fill: #9467bd"/>
   </g>
   <g id="patch_42">
    <path d="M 545.909269 207.490063 
L 549.013924 207.490063 
L 549.013924 158.74646 
L 545.909269 158.74646 
z
" clip-path="url(#p1276e6a990)" style="fill: #9467bd"/>
   </g>
   <g id="patch_43">
    <path d="M 558.327888 207.490063 
L 561.432543 207.490063 
L 561.432543 155.882128 
L 558.327888 155.882128 
z
" clip-path="url(#p1276e6a990)" style="fill: #9467bd"/>
   </g>
   <g id="patch_44">
    <path d="M 570.746507 207.490063 
L 573.851161 207.490063 
L 573.851161 155.798862 
L 570.746507 155.798862 
z
" clip-path="url(#p1276e6a990)" style="fill: #9467bd"/>
   </g>
   <g id="patch_45">
    <path d="M 583.165126 207.490063 
L 586.26978 207.490063 
L 586.26978 155.232657 
L 583.165126 155.232657 
z
" clip-path="url(#p1276e6a990)" style="fill: #9467bd"/>
   </g>
   <g id="patch_46">
    <path d="M 595.583745 207.490063 
L 598.688399 207.490063 
L 598.688399 154.583186 
L 595.583745 154.583186 
z
" clip-path="url(#p1276e6a990)" style="fill: #9467bd"/>
   </g>
   <g id="patch_47">
    <path d="M 608.002363 207.490063 
L 611.107018 207.490063 
L 611.107018 156.714782 
L 608.002363 156.714782 
z
" clip-path="url(#p1276e6a990)" style="fill: #9467bd"/>
   </g>
   <g id="patch_48">
    <path d="M 620.420982 207.490063 
L 623.525637 207.490063 
L 623.525637 121.793246 
L 620.420982 121.793246 
z
" clip-path="url(#p1276e6a990)" style="fill: #9467bd"/>
   </g>
   <g id="patch_49">
    <path d="M 632.839601 207.490063 
L 635.944256 207.490063 
L 635.944256 140.910997 
L 632.839601 140.910997 
z
" clip-path="url(#p1276e6a990)" style="fill: #9467bd"/>
   </g>
   <g id="patch_50">
    <path d="M 645.25822 207.490063 
L 648.362875 207.490063 
L 648.362875 141.127487 
L 645.25822 141.127487 
z
" clip-path="url(#p1276e6a990)" style="fill: #9467bd"/>
   </g>
   <g id="patch_51">
    <path d="M 657.676839 207.490063 
L 660.781494 207.490063 
L 660.781494 141.327324 
L 657.676839 141.327324 
z
" clip-path="url(#p1276e6a990)" style="fill: #9467bd"/>
   </g>
   <g id="patch_52">
    <path d="M 670.095458 207.490063 
L 673.200113 207.490063 
L 673.200113 207.406798 
L 670.095458 207.406798 
z
" clip-path="url(#p1276e6a990)" style="fill: #9467bd"/>
   </g>
   <g id="patch_53">
    <path d="M 682.514077 207.490063 
L 685.618731 207.490063 
L 685.618731 207.423451 
L 682.514077 207.423451 
z
" clip-path="url(#p1276e6a990)" style="fill: #9467bd"/>
   </g>
   <g id="patch_54">
    <path d="M 694.932696 207.490063 
L 698.03735 207.490063 
L 698.03735 207.490063 
L 694.932696 207.490063 
z
" clip-path="url(#p1276e6a990)" style="fill: #9467bd"/>
   </g>
   <g id="patch_55">
    <path d="M 707.351315 207.490063 
L 710.455969 207.490063 
L 710.455969 155.049473 
L 707.351315 155.049473 
z
" clip-path="url(#p1276e6a990)" style="fill: #9467bd"/>
   </g>
   <g id="patch_56">
    <path d="M 719.769933 207.490063 
L 722.874588 207.490063 
L 722.874588 155.565719 
L 719.769933 155.565719 
z
" clip-path="url(#p1276e6a990)" style="fill: #9467bd"/>
   </g>
   <g id="patch_57">
    <path d="M 732.188552 207.490063 
L 735.293207 207.490063 
L 735.293207 156.498292 
L 732.188552 156.498292 
z
" clip-path="url(#p1276e6a990)" style="fill: #9467bd"/>
   </g>
   <g id="patch_58">
    <path d="M 744.607171 207.490063 
L 747.711826 207.490063 
L 747.711826 156.048659 
L 744.607171 156.048659 
z
" clip-path="url(#p1276e6a990)" style="fill: #9467bd"/>
   </g>
   <g id="patch_59">
    <path d="M 757.02579 207.490063 
L 760.130445 207.490063 
L 760.130445 160.511688 
L 757.02579 160.511688 
z
" clip-path="url(#p1276e6a990)" style="fill: #9467bd"/>
   </g>
   <g id="patch_60">
    <path d="M 769.444409 207.490063 
L 772.549064 207.490063 
L 772.549064 155.349229 
L 769.444409 155.349229 
z
" clip-path="url(#p1276e6a990)" style="fill: #9467bd"/>
   </g>
   <g id="patch_61">
    <path d="M 781.863028 207.490063 
L 784.967683 207.490063 
L 784.967683 155.149392 
L 781.863028 155.149392 
z
" clip-path="url(#p1276e6a990)" style="fill: #9467bd"/>
   </g>
   <g id="patch_62">
    <path d="M 794.281647 207.490063 
L 797.386302 207.490063 
L 797.386302 160.445075 
L 794.281647 160.445075 
z
" clip-path="url(#p1276e6a990)" style="fill: #9467bd"/>
   </g>
   <g id="patch_63">
    <path d="M 806.700266 207.490063 
L 809.80492 207.490063 
L 809.80492 154.33339 
L 806.700266 154.33339 
z
" clip-path="url(#p1276e6a990)" style="fill: #9467bd"/>
   </g>
   <g id="patch_64">
    <path d="M 819.118885 207.490063 
L 822.223539 207.490063 
L 822.223539 157.414212 
L 819.118885 157.414212 
z
" clip-path="url(#p1276e6a990)" style="fill: #9467bd"/>
   </g>
   <g id="patch_65">
    <path d="M 64.687787 207.490063 
L 67.792442 207.490063 
L 67.792442 206.607449 
L 64.687787 206.607449 
z
" clip-path="url(#p1276e6a990)" style="fill: #1f77b4"/>
   </g>
   <g id="patch_66">
    <path d="M 77.106406 207.490063 
L 80.211061 207.490063 
L 80.211061 155.049473 
L 77.106406 155.049473 
z
" clip-path="url(#p1276e6a990)" style="fill: #1f77b4"/>
   </g>
   <g id="patch_67">
    <path d="M 89.525025 207.490063 
L 92.629679 207.490063 
L 92.629679 207.490063 
L 89.525025 207.490063 
z
" clip-path="url(#p1276e6a990)" style="fill: #1f77b4"/>
   </g>
   <g id="patch_68">
    <path d="M 101.943644 207.490063 
L 105.048298 207.490063 
L 105.048298 143.991819 
L 101.943644 143.991819 
z
" clip-path="url(#p1276e6a990)" style="fill: #1f77b4"/>
   </g>
   <g id="patch_69">
    <path d="M 114.362263 207.490063 
L 117.466917 207.490063 
L 117.466917 119.01218 
L 114.362263 119.01218 
z
" clip-path="url(#p1276e6a990)" style="fill: #1f77b4"/>
   </g>
   <g id="patch_70">
    <path d="M 126.780881 207.490063 
L 129.885536 207.490063 
L 129.885536 187.156636 
L 126.780881 187.156636 
z
" clip-path="url(#p1276e6a990)" style="fill: #1f77b4"/>
   </g>
   <g id="patch_71">
    <path d="M 139.1995 207.490063 
L 142.304155 207.490063 
L 142.304155 195.233387 
L 139.1995 195.233387 
z
" clip-path="url(#p1276e6a990)" style="fill: #1f77b4"/>
   </g>
   <g id="patch_72">
    <path d="M 151.618119 207.490063 
L 154.722774 207.490063 
L 154.722774 199.163517 
L 151.618119 199.163517 
z
" clip-path="url(#p1276e6a990)" style="fill: #1f77b4"/>
   </g>
   <g id="patch_73">
    <path d="M 164.036738 207.490063 
L 167.141393 207.490063 
L 167.141393 171.18632 
L 164.036738 171.18632 
z
" clip-path="url(#p1276e6a990)" style="fill: #1f77b4"/>
   </g>
   <g id="patch_74">
    <path d="M 176.455357 207.490063 
L 179.560012 207.490063 
L 179.560012 163.32606 
L 176.455357 163.32606 
z
" clip-path="url(#p1276e6a990)" style="fill: #1f77b4"/>
   </g>
   <g id="patch_75">
    <path d="M 188.873976 207.490063 
L 191.978631 207.490063 
L 191.978631 157.78058 
L 188.873976 157.78058 
z
" clip-path="url(#p1276e6a990)" style="fill: #1f77b4"/>
   </g>
   <g id="patch_76">
    <path d="M 201.292595 207.490063 
L 204.397249 207.490063 
L 204.397249 157.08115 
L 201.292595 157.08115 
z
" clip-path="url(#p1276e6a990)" style="fill: #1f77b4"/>
   </g>
   <g id="patch_77">
    <path d="M 213.711214 207.490063 
L 216.815868 207.490063 
L 216.815868 170.037257 
L 213.711214 170.037257 
z
" clip-path="url(#p1276e6a990)" style="fill: #1f77b4"/>
   </g>
   <g id="patch_78">
    <path d="M 226.129833 207.490063 
L 229.234487 207.490063 
L 229.234487 184.758591 
L 226.129833 184.758591 
z
" clip-path="url(#p1276e6a990)" style="fill: #1f77b4"/>
   </g>
   <g id="patch_79">
    <path d="M 238.548451 207.490063 
L 241.653106 207.490063 
L 241.653106 181.044951 
L 238.548451 181.044951 
z
" clip-path="url(#p1276e6a990)" style="fill: #1f77b4"/>
   </g>
   <g id="patch_80">
    <path d="M 250.96707 207.490063 
L 254.071725 207.490063 
L 254.071725 152.251753 
L 250.96707 152.251753 
z
" clip-path="url(#p1276e6a990)" style="fill: #1f77b4"/>
   </g>
   <g id="patch_81">
    <path d="M 263.385689 207.490063 
L 266.490344 207.490063 
L 266.490344 108.770527 
L 263.385689 108.770527 
z
" clip-path="url(#p1276e6a990)" style="fill: #1f77b4"/>
   </g>
   <g id="patch_82">
    <path d="M 275.804308 207.490063 
L 278.908963 207.490063 
L 278.908963 205.991285 
L 275.804308 205.991285 
z
" clip-path="url(#p1276e6a990)" style="fill: #1f77b4"/>
   </g>
   <g id="patch_83">
    <path d="M 288.222927 207.490063 
L 291.327582 207.490063 
L 291.327582 205.924672 
L 288.222927 205.924672 
z
" clip-path="url(#p1276e6a990)" style="fill: #1f77b4"/>
   </g>
   <g id="patch_84">
    <path d="M 300.641546 207.490063 
L 303.746201 207.490063 
L 303.746201 207.47341 
L 300.641546 207.47341 
z
" clip-path="url(#p1276e6a990)" style="fill: #1f77b4"/>
   </g>
   <g id="patch_85">
    <path d="M 313.060165 207.490063 
L 316.164819 207.490063 
L 316.164819 136.198172 
L 313.060165 136.198172 
z
" clip-path="url(#p1276e6a990)" style="fill: #1f77b4"/>
   </g>
   <g id="patch_86">
    <path d="M 325.478784 207.490063 
L 328.583438 207.490063 
L 328.583438 132.034898 
L 325.478784 132.034898 
z
" clip-path="url(#p1276e6a990)" style="fill: #1f77b4"/>
   </g>
   <g id="patch_87">
    <path d="M 337.897403 207.490063 
L 341.002057 207.490063 
L 341.002057 122.176267 
L 337.897403 122.176267 
z
" clip-path="url(#p1276e6a990)" style="fill: #1f77b4"/>
   </g>
   <g id="patch_88">
    <path d="M 350.316021 207.490063 
L 353.420676 207.490063 
L 353.420676 143.02594 
L 350.316021 143.02594 
z
" clip-path="url(#p1276e6a990)" style="fill: #1f77b4"/>
   </g>
   <g id="patch_89">
    <path d="M 362.73464 207.490063 
L 365.839295 207.490063 
L 365.839295 142.676225 
L 362.73464 142.676225 
z
" clip-path="url(#p1276e6a990)" style="fill: #1f77b4"/>
   </g>
   <g id="patch_90">
    <path d="M 375.153259 207.490063 
L 378.257914 207.490063 
L 378.257914 134.516209 
L 375.153259 134.516209 
z
" clip-path="url(#p1276e6a990)" style="fill: #1f77b4"/>
   </g>
   <g id="patch_91">
    <path d="M 387.571878 207.490063 
L 390.676533 207.490063 
L 390.676533 110.485796 
L 387.571878 110.485796 
z
" clip-path="url(#p1276e6a990)" style="fill: #1f77b4"/>
   </g>
   <g id="patch_92">
    <path d="M 399.990497 207.490063 
L 403.095152 207.490063 
L 403.095152 97.279893 
L 399.990497 97.279893 
z
" clip-path="url(#p1276e6a990)" style="fill: #1f77b4"/>
   </g>
   <g id="patch_93">
    <path d="M 412.409116 207.490063 
L 415.513771 207.490063 
L 415.513771 125.290396 
L 412.409116 125.290396 
z
" clip-path="url(#p1276e6a990)" style="fill: #1f77b4"/>
   </g>
   <g id="patch_94">
    <path d="M 424.827735 207.490063 
L 427.93239 207.490063 
L 427.93239 178.863396 
L 424.827735 178.863396 
z
" clip-path="url(#p1276e6a990)" style="fill: #1f77b4"/>
   </g>
   <g id="patch_95">
    <path d="M 437.246354 207.490063 
L 440.351008 207.490063 
L 440.351008 198.847108 
L 437.246354 198.847108 
z
" clip-path="url(#p1276e6a990)" style="fill: #1f77b4"/>
   </g>
   <g id="patch_96">
    <path d="M 449.664973 207.490063 
L 452.769627 207.490063 
L 452.769627 207.490063 
L 449.664973 207.490063 
z
" clip-path="url(#p1276e6a990)" style="fill: #1f77b4"/>
   </g>
   <g id="patch_97">
    <path d="M 462.083591 207.490063 
L 465.188246 207.490063 
L 465.188246 152.767999 
L 462.083591 152.767999 
z
" clip-path="url(#p1276e6a990)" style="fill: #1f77b4"/>
   </g>
   <g id="patch_98">
    <path d="M 474.50221 207.490063 
L 477.606865 207.490063 
L 477.606865 167.555946 
L 474.50221 167.555946 
z
" clip-path="url(#p1276e6a990)" style="fill: #1f77b4"/>
   </g>
   <g id="patch_99">
    <path d="M 486.920829 207.490063 
L 490.025484 207.490063 
L 490.025484 159.762298 
L 486.920829 159.762298 
z
" clip-path="url(#p1276e6a990)" style="fill: #1f77b4"/>
   </g>
   <g id="patch_100">
    <path d="M 499.339448 207.490063 
L 502.444103 207.490063 
L 502.444103 118.912261 
L 499.339448 118.912261 
z
" clip-path="url(#p1276e6a990)" style="fill: #1f77b4"/>
   </g>
   <g id="patch_101">
    <path d="M 511.758067 207.490063 
L 514.862722 207.490063 
L 514.862722 102.142596 
L 511.758067 102.142596 
z
" clip-path="url(#p1276e6a990)" style="fill: #1f77b4"/>
   </g>
   <g id="patch_102">
    <path d="M 524.176686 207.490063 
L 527.281341 207.490063 
L 527.281341 98.312385 
L 524.176686 98.312385 
z
" clip-path="url(#p1276e6a990)" style="fill: #1f77b4"/>
   </g>
   <g id="patch_103">
    <path d="M 536.595305 207.490063 
L 539.69996 207.490063 
L 539.69996 207.490063 
L 536.595305 207.490063 
z
" clip-path="url(#p1276e6a990)" style="fill: #1f77b4"/>
   </g>
   <g id="patch_104">
    <path d="M 549.013924 207.490063 
L 552.118578 207.490063 
L 552.118578 207.490063 
L 549.013924 207.490063 
z
" clip-path="url(#p1276e6a990)" style="fill: #1f77b4"/>
   </g>
   <g id="patch_105">
    <path d="M 561.432543 207.490063 
L 564.537197 207.490063 
L 564.537197 207.490063 
L 561.432543 207.490063 
z
" clip-path="url(#p1276e6a990)" style="fill: #1f77b4"/>
   </g>
   <g id="patch_106">
    <path d="M 573.851161 207.490063 
L 576.955816 207.490063 
L 576.955816 207.490063 
L 573.851161 207.490063 
z
" clip-path="url(#p1276e6a990)" style="fill: #1f77b4"/>
   </g>
   <g id="patch_107">
    <path d="M 586.26978 207.490063 
L 589.374435 207.490063 
L 589.374435 118.246137 
L 586.26978 118.246137 
z
" clip-path="url(#p1276e6a990)" style="fill: #1f77b4"/>
   </g>
   <g id="patch_108">
    <path d="M 598.688399 207.490063 
L 601.793054 207.490063 
L 601.793054 140.061689 
L 598.688399 140.061689 
z
" clip-path="url(#p1276e6a990)" style="fill: #1f77b4"/>
   </g>
   <g id="patch_109">
    <path d="M 611.107018 207.490063 
L 614.211673 207.490063 
L 614.211673 101.826188 
L 611.107018 101.826188 
z
" clip-path="url(#p1276e6a990)" style="fill: #1f77b4"/>
   </g>
   <g id="patch_110">
    <path d="M 623.525637 207.490063 
L 626.630292 207.490063 
L 626.630292 158.96295 
L 623.525637 158.96295 
z
" clip-path="url(#p1276e6a990)" style="fill: #1f77b4"/>
   </g>
   <g id="patch_111">
    <path d="M 635.944256 207.490063 
L 639.048911 207.490063 
L 639.048911 178.846743 
L 635.944256 178.846743 
z
" clip-path="url(#p1276e6a990)" style="fill: #1f77b4"/>
   </g>
   <g id="patch_112">
    <path d="M 648.362875 207.490063 
L 651.46753 207.490063 
L 651.46753 194.667181 
L 648.362875 194.667181 
z
" clip-path="url(#p1276e6a990)" style="fill: #1f77b4"/>
   </g>
   <g id="patch_113">
    <path d="M 660.781494 207.490063 
L 663.886148 207.490063 
L 663.886148 198.514046 
L 660.781494 198.514046 
z
" clip-path="url(#p1276e6a990)" style="fill: #1f77b4"/>
   </g>
   <g id="patch_114">
    <path d="M 673.200113 207.490063 
L 676.304767 207.490063 
L 676.304767 207.456757 
L 673.200113 207.456757 
z
" clip-path="url(#p1276e6a990)" style="fill: #1f77b4"/>
   </g>
   <g id="patch_115">
    <path d="M 685.618731 207.490063 
L 688.723386 207.490063 
L 688.723386 207.490063 
L 685.618731 207.490063 
z
" clip-path="url(#p1276e6a990)" style="fill: #1f77b4"/>
   </g>
   <g id="patch_116">
    <path d="M 698.03735 207.490063 
L 701.142005 207.490063 
L 701.142005 207.490063 
L 698.03735 207.490063 
z
" clip-path="url(#p1276e6a990)" style="fill: #1f77b4"/>
   </g>
   <g id="patch_117">
    <path d="M 710.455969 207.490063 
L 713.560624 207.490063 
L 713.560624 207.490063 
L 710.455969 207.490063 
z
" clip-path="url(#p1276e6a990)" style="fill: #1f77b4"/>
   </g>
   <g id="patch_118">
    <path d="M 722.874588 207.490063 
L 725.979243 207.490063 
L 725.979243 207.490063 
L 722.874588 207.490063 
z
" clip-path="url(#p1276e6a990)" style="fill: #1f77b4"/>
   </g>
   <g id="patch_119">
    <path d="M 735.293207 207.490063 
L 738.397862 207.490063 
L 738.397862 162.460099 
L 735.293207 162.460099 
z
" clip-path="url(#p1276e6a990)" style="fill: #1f77b4"/>
   </g>
   <g id="patch_120">
    <path d="M 747.711826 207.490063 
L 750.816481 207.490063 
L 750.816481 207.490063 
L 747.711826 207.490063 
z
" clip-path="url(#p1276e6a990)" style="fill: #1f77b4"/>
   </g>
   <g id="patch_121">
    <path d="M 760.130445 207.490063 
L 763.2351 207.490063 
L 763.2351 207.490063 
L 760.130445 207.490063 
z
" clip-path="url(#p1276e6a990)" style="fill: #1f77b4"/>
   </g>
   <g id="patch_122">
    <path d="M 772.549064 207.490063 
L 775.653718 207.490063 
L 775.653718 90.718574 
L 772.549064 90.718574 
z
" clip-path="url(#p1276e6a990)" style="fill: #1f77b4"/>
   </g>
   <g id="patch_123">
    <path d="M 784.967683 207.490063 
L 788.072337 207.490063 
L 788.072337 207.47341 
L 784.967683 207.47341 
z
" clip-path="url(#p1276e6a990)" style="fill: #1f77b4"/>
   </g>
   <g id="patch_124">
    <path d="M 797.386302 207.490063 
L 800.490956 207.490063 
L 800.490956 207.490063 
L 797.386302 207.490063 
z
" clip-path="url(#p1276e6a990)" style="fill: #1f77b4"/>
   </g>
   <g id="patch_125">
    <path d="M 809.80492 207.490063 
L 812.909575 207.490063 
L 812.909575 205.791448 
L 809.80492 205.791448 
z
" clip-path="url(#p1276e6a990)" style="fill: #1f77b4"/>
   </g>
   <g id="patch_126">
    <path d="M 822.223539 207.490063 
L 825.328194 207.490063 
L 825.328194 97.596302 
L 822.223539 97.596302 
z
" clip-path="url(#p1276e6a990)" style="fill: #1f77b4"/>
   </g>
   <g id="matplotlib.axis_1">
    <g id="xtick_1">
     <g id="line2d_1">
      <path d="M 64.687787 207.490063 
L 64.687787 84.88 
" clip-path="url(#p1276e6a990)" style="fill: none; stroke: #b0b0b0; stroke-width: 0.8; stroke-linecap: square"/>
     </g>
     <g id="line2d_2">
      <defs>
       <path id="m886dea2439" d="M 0 0 
L 0 3.5 
" style="stroke: #000000; stroke-width: 0.8"/>
      </defs>
      <g>
       <use xlink:href="#m886dea2439" x="64.687787" y="207.490063" style="stroke: #000000; stroke-width: 0.8"/>
      </g>
     </g>
    </g>
    <g id="xtick_2">
     <g id="line2d_3">
      <path d="M 263.385689 207.490063 
L 263.385689 84.88 
" clip-path="url(#p1276e6a990)" style="fill: none; stroke: #b0b0b0; stroke-width: 0.8; stroke-linecap: square"/>
     </g>
     <g id="line2d_4">
      <g>
       <use xlink:href="#m886dea2439" x="263.385689" y="207.490063" style="stroke: #000000; stroke-width: 0.8"/>
      </g>
     </g>
    </g>
    <g id="xtick_3">
     <g id="line2d_5">
      <path d="M 437.246354 207.490063 
L 437.246354 84.88 
" clip-path="url(#p1276e6a990)" style="fill: none; stroke: #b0b0b0; stroke-width: 0.8; stroke-linecap: square"/>
     </g>
     <g id="line2d_6">
      <g>
       <use xlink:href="#m886dea2439" x="437.246354" y="207.490063" style="stroke: #000000; stroke-width: 0.8"/>
      </g>
     </g>
    </g>
    <g id="xtick_4">
     <g id="line2d_7">
      <path d="M 648.362875 207.490063 
L 648.362875 84.88 
" clip-path="url(#p1276e6a990)" style="fill: none; stroke: #b0b0b0; stroke-width: 0.8; stroke-linecap: square"/>
     </g>
     <g id="line2d_8">
      <g>
       <use xlink:href="#m886dea2439" x="648.362875" y="207.490063" style="stroke: #000000; stroke-width: 0.8"/>
      </g>
     </g>
    </g>
    <g id="xtick_5">
     <g id="line2d_9">
      <path d="M 822.223539 207.490063 
L 822.223539 84.88 
" clip-path="url(#p1276e6a990)" style="fill: none; stroke: #b0b0b0; stroke-width: 0.8; stroke-linecap: square"/>
     </g>
     <g id="line2d_10">
      <g>
       <use xlink:href="#m886dea2439" x="822.223539" y="207.490063" style="stroke: #000000; stroke-width: 0.8"/>
      </g>
     </g>
    </g>
    <g id="xtick_6">
     <g id="line2d_11">
      <defs>
       <path id="m9ba964bcde" d="M 0 0 
L 0 2 
" style="stroke: #000000; stroke-width: 0.6"/>
      </defs>
      <g>
       <use xlink:href="#m9ba964bcde" x="188.873976" y="207.490063" style="stroke: #000000; stroke-width: 0.6"/>
      </g>
     </g>
    </g>
    <g id="xtick_7">
     <g id="line2d_12">
      <g>
       <use xlink:href="#m9ba964bcde" x="313.060165" y="207.490063" style="stroke: #000000; stroke-width: 0.6"/>
      </g>
     </g>
    </g>
    <g id="xtick_8">
     <g id="line2d_13">
      <g>
       <use xlink:href="#m9ba964bcde" x="561.432543" y="207.490063" style="stroke: #000000; stroke-width: 0.6"/>
      </g>
     </g>
    </g>
    <g id="xtick_9">
     <g id="line2d_14">
      <g>
       <use xlink:href="#m9ba964bcde" x="685.618731" y="207.490063" style="stroke: #000000; stroke-width: 0.6"/>
      </g>
     </g>
    </g>
    <g id="xtick_10">
     <g id="line2d_15">
      <g>
       <use xlink:href="#m9ba964bcde" x="809.80492" y="207.490063" style="stroke: #000000; stroke-width: 0.6"/>
      </g>
     </g>
    </g>
   </g>
   <g id="matplotlib.axis_2">
    <g id="ytick_1">
     <g id="line2d_16">
      <path d="M 58.478478 207.490063 
L 828.432849 207.490063 
" clip-path="url(#p1276e6a990)" style="fill: none; stroke: #b0b0b0; stroke-width: 0.8; stroke-linecap: square"/>
     </g>
     <g id="line2d_17">
      <defs>
       <path id="mb8dc6de7ff" d="M 0 0 
L -3.5 0 
" style="stroke: #000000; stroke-width: 0.8"/>
      </defs>
      <g>
       <use xlink:href="#mb8dc6de7ff" x="58.478478" y="207.490063" style="stroke: #000000; stroke-width: 0.8"/>
      </g>
     </g>
     <g id="text_1">
      <!-- $\mathdefault{0}$ -->
      <g transform="translate(43.508365 212.893727) scale(0.16 -0.16)">
       <defs>
        <path id="NimbusRomNo9L-Regu-30" d="M 1626 4352 
C 1274 4352 1005 4244 768 4020 
C 397 3661 154 2925 154 2176 
C 154 1479 365 730 666 372 
C 902 90 1229 -64 1600 -64 
C 1926 -64 2202 45 2432 269 
C 2803 621 3046 1364 3046 2138 
C 3046 3450 2464 4352 1626 4352 
z
M 1606 4186 
C 2144 4186 2432 3463 2432 2125 
C 2432 788 2150 103 1600 103 
C 1050 103 768 788 768 2119 
C 768 3476 1056 4186 1606 4186 
z
" transform="scale(0.015625)"/>
       </defs>
       <use xlink:href="#NimbusRomNo9L-Regu-30" transform="scale(0.996264)"/>
      </g>
     </g>
    </g>
    <g id="ytick_2">
     <g id="line2d_18">
      <path d="M 58.478478 161.231471 
L 828.432849 161.231471 
" clip-path="url(#p1276e6a990)" style="fill: none; stroke: #b0b0b0; stroke-width: 0.8; stroke-linecap: square"/>
     </g>
     <g id="line2d_19">
      <g>
       <use xlink:href="#mb8dc6de7ff" x="58.478478" y="161.231471" style="stroke: #000000; stroke-width: 0.8"/>
      </g>
     </g>
     <g id="text_2">
      <!-- $\mathdefault{5}$ -->
      <g transform="translate(43.508365 166.635135) scale(0.16 -0.16)">
       <defs>
        <path id="NimbusRomNo9L-Regu-35" d="M 1158 3776 
L 2413 3776 
C 2515 3776 2541 3789 2560 3834 
L 2803 4403 
L 2746 4448 
C 2650 4314 2586 4282 2451 4282 
L 1114 4282 
L 416 2759 
C 410 2746 410 2740 410 2727 
C 410 2695 435 2676 486 2676 
C 691 2676 947 2631 1210 2547 
C 1946 2309 2285 1910 2285 1274 
C 2285 656 1894 173 1395 173 
C 1267 173 1158 218 966 360 
C 762 508 614 572 480 572 
C 294 572 205 495 205 334 
C 205 90 506 -64 986 -64 
C 1523 -64 1984 110 2304 438 
C 2598 728 2733 1094 2733 1583 
C 2733 2046 2611 2342 2291 2663 
C 2010 2947 1645 3094 890 3229 
L 1158 3776 
z
" transform="scale(0.015625)"/>
       </defs>
       <use xlink:href="#NimbusRomNo9L-Regu-35" transform="scale(0.996264)"/>
      </g>
     </g>
    </g>
    <g id="ytick_3">
     <g id="line2d_20">
      <path d="M 58.478478 114.972879 
L 828.432849 114.972879 
" clip-path="url(#p1276e6a990)" style="fill: none; stroke: #b0b0b0; stroke-width: 0.8; stroke-linecap: square"/>
     </g>
     <g id="line2d_21">
      <g>
       <use xlink:href="#mb8dc6de7ff" x="58.478478" y="114.972879" style="stroke: #000000; stroke-width: 0.8"/>
      </g>
     </g>
     <g id="text_3">
      <!-- $\mathdefault{10}$ -->
      <g transform="translate(35.538253 120.376543) scale(0.16 -0.16)">
       <defs>
        <path id="NimbusRomNo9L-Regu-31" d="M 1862 4339 
L 710 3757 
L 710 3667 
C 787 3699 858 3725 883 3738 
C 998 3783 1107 3808 1171 3808 
C 1306 3808 1363 3711 1363 3505 
L 1363 592 
C 1363 379 1312 232 1210 173 
C 1114 116 1024 96 755 96 
L 755 0 
L 2522 0 
L 2522 96 
C 2016 96 1914 160 1914 470 
L 1914 4327 
L 1862 4339 
z
" transform="scale(0.015625)"/>
       </defs>
       <use xlink:href="#NimbusRomNo9L-Regu-31" transform="scale(0.996264)"/>
       <use xlink:href="#NimbusRomNo9L-Regu-30" transform="translate(49.8132 0) scale(0.996264)"/>
      </g>
     </g>
    </g>
    <g id="text_4">
     <!-- Water (L) -->
     <g transform="translate(28.087327 177.188519) rotate(-90) scale(0.16 -0.16)">
      <defs>
       <path id="NimbusRomNo9L-Regu-57" d="M 5965 4224 
L 4698 4224 
L 4698 4102 
C 5024 4070 5139 4000 5139 3826 
C 5139 3692 5101 3524 5037 3345 
L 4237 1169 
L 3392 3358 
C 3379 3390 3322 3531 3315 3551 
C 3258 3685 3219 3807 3219 3877 
C 3219 4032 3366 4096 3712 4096 
L 3712 4224 
L 2003 4224 
L 2003 4096 
C 2368 4096 2432 4038 2650 3524 
L 2861 2998 
L 2176 1188 
L 1254 3612 
C 1210 3728 1184 3838 1184 3909 
C 1184 4051 1274 4096 1600 4096 
L 1600 4224 
L 32 4224 
L 32 4102 
C 358 4070 454 3955 691 3351 
L 1926 -96 
L 2022 -96 
L 3008 2619 
L 4032 -96 
L 4128 -96 
C 4672 1579 4736 1759 5434 3647 
C 5555 3981 5626 4038 5965 4102 
L 5965 4224 
z
" transform="scale(0.015625)"/>
       <path id="NimbusRomNo9L-Regu-61" d="M 2829 423 
C 2720 333 2643 301 2547 301 
C 2400 301 2355 390 2355 672 
L 2355 1920 
C 2355 2253 2323 2438 2227 2592 
C 2086 2822 1811 2944 1434 2944 
C 832 2944 358 2630 358 2227 
C 358 2080 486 1952 634 1952 
C 787 1952 922 2080 922 2221 
C 922 2246 915 2278 909 2323 
C 896 2381 890 2432 890 2477 
C 890 2650 1094 2790 1350 2790 
C 1664 2790 1837 2605 1837 2259 
L 1837 1869 
C 851 1472 742 1421 467 1178 
C 326 1050 237 832 237 621 
C 237 218 518 -64 909 -64 
C 1190 -64 1453 70 1843 403 
C 1875 70 1990 -64 2253 -64 
C 2470 -64 2605 13 2829 256 
L 2829 423 
z
M 1837 783 
C 1837 584 1805 526 1670 449 
C 1517 359 1338 301 1203 301 
C 979 301 800 520 800 796 
L 800 822 
C 800 1201 1062 1433 1837 1715 
L 1837 783 
z
" transform="scale(0.015625)"/>
       <path id="NimbusRomNo9L-Regu-74" d="M 1632 2880 
L 986 2880 
L 986 3622 
C 986 3686 979 3706 941 3706 
C 896 3648 858 3590 813 3526 
C 570 3174 294 2867 192 2841 
C 122 2794 83 2748 83 2715 
C 83 2695 90 2682 109 2682 
L 448 2682 
L 448 751 
C 448 212 640 -64 1018 -64 
C 1331 -64 1574 90 1786 423 
L 1702 493 
C 1568 333 1459 269 1318 269 
C 1082 269 986 443 986 847 
L 986 2682 
L 1632 2682 
L 1632 2880 
z
" transform="scale(0.015625)"/>
       <path id="NimbusRomNo9L-Regu-65" d="M 2611 1053 
C 2304 564 2029 378 1619 378 
C 1254 378 979 564 794 930 
C 678 1174 634 1386 621 1779 
L 2592 1779 
C 2541 2193 2477 2377 2317 2581 
C 2125 2811 1830 2944 1498 2944 
C 1178 2944 877 2829 634 2611 
C 333 2349 160 1894 160 1370 
C 160 486 621 -64 1357 -64 
C 1965 -64 2445 315 2714 1008 
L 2611 1053 
z
M 634 1984 
C 704 2479 922 2714 1312 2714 
C 1702 2714 1856 2535 1939 1984 
L 634 1984 
z
" transform="scale(0.015625)"/>
       <path id="NimbusRomNo9L-Regu-72" d="M 45 2496 
C 134 2515 192 2522 269 2522 
C 429 2522 486 2419 486 2138 
L 486 538 
C 486 218 442 173 32 96 
L 32 0 
L 1568 0 
L 1568 102 
C 1133 102 1024 199 1024 565 
L 1024 2013 
C 1024 2219 1299 2541 1472 2541 
C 1510 2541 1568 2509 1638 2445 
C 1741 2355 1811 2317 1894 2317 
C 2048 2317 2144 2426 2144 2605 
C 2144 2816 2010 2944 1792 2944 
C 1523 2944 1338 2797 1024 2343 
L 1024 2931 
L 992 2944 
C 653 2803 422 2721 45 2599 
L 45 2496 
z
" transform="scale(0.015625)"/>
       <path id="NimbusRomNo9L-Regu-28" d="M 1888 4326 
C 1414 4019 1222 3853 986 3558 
C 531 3002 307 2362 307 1613 
C 307 800 544 173 1107 -480 
C 1370 -787 1536 -928 1869 -1133 
L 1946 -1030 
C 1434 -627 1254 -403 1082 77 
C 928 506 858 992 858 1632 
C 858 2304 941 2829 1114 3226 
C 1293 3622 1485 3853 1946 4224 
L 1888 4326 
z
" transform="scale(0.015625)"/>
       <path id="NimbusRomNo9L-Regu-4c" d="M 3667 1114 
C 3558 870 3469 723 3373 614 
C 3149 365 2797 250 2266 250 
L 1837 250 
C 1370 250 1286 288 1286 513 
L 1286 3550 
C 1286 4007 1376 4096 1882 4096 
L 1882 4237 
L 77 4237 
L 77 4115 
C 550 4077 634 3986 634 3536 
L 634 681 
C 634 230 544 134 77 134 
L 77 0 
L 3520 0 
L 3827 1114 
L 3667 1114 
z
" transform="scale(0.015625)"/>
       <path id="NimbusRomNo9L-Regu-29" d="M 243 -1133 
C 717 -826 909 -659 1146 -365 
C 1600 192 1824 832 1824 1581 
C 1824 2400 1587 3021 1024 3674 
C 762 3981 595 4122 262 4326 
L 186 4224 
C 698 3821 870 3597 1050 3117 
C 1203 2688 1274 2202 1274 1562 
C 1274 896 1190 365 1018 -26 
C 838 -429 646 -659 186 -1030 
L 243 -1133 
z
" transform="scale(0.015625)"/>
      </defs>
      <use xlink:href="#NimbusRomNo9L-Regu-57" transform="scale(0.996264)"/>
      <use xlink:href="#NimbusRomNo9L-Regu-61" transform="translate(86.077326 0) scale(0.996264)"/>
      <use xlink:href="#NimbusRomNo9L-Regu-74" transform="translate(130.310895 0) scale(0.996264)"/>
      <use xlink:href="#NimbusRomNo9L-Regu-65" transform="translate(158.006064 0) scale(0.996264)"/>
      <use xlink:href="#NimbusRomNo9L-Regu-72" transform="translate(202.239633 0) scale(0.996264)"/>
      <use xlink:href="#NimbusRomNo9L-Regu-28" transform="translate(260.321463 0) scale(0.996264)"/>
      <use xlink:href="#NimbusRomNo9L-Regu-4c" transform="translate(293.496693 0) scale(0.996264)"/>
      <use xlink:href="#NimbusRomNo9L-Regu-29" transform="translate(354.368323 0) scale(0.996264)"/>
     </g>
    </g>
   </g>
   <g id="patch_127">
    <path d="M 58.478478 207.490063 
L 58.478478 84.88 
" style="fill: none; stroke: #000000; stroke-width: 0.8; stroke-linejoin: miter; stroke-linecap: square"/>
   </g>
   <g id="patch_128">
    <path d="M 828.432849 207.490063 
L 828.432849 84.88 
" style="fill: none; stroke: #000000; stroke-width: 0.8; stroke-linejoin: miter; stroke-linecap: square"/>
   </g>
   <g id="patch_129">
    <path d="M 58.478478 207.490063 
L 828.432849 207.490063 
" style="fill: none; stroke: #000000; stroke-width: 0.8; stroke-linejoin: miter; stroke-linecap: square"/>
   </g>
   <g id="patch_130">
    <path d="M 58.478478 84.88 
L 828.432849 84.88 
" style="fill: none; stroke: #000000; stroke-width: 0.8; stroke-linejoin: miter; stroke-linecap: square"/>
   </g>
   <g id="text_5">
    <!-- Ancarani (2024) -->
    <g transform="translate(380.514538 78.88) scale(0.192 -0.192)">
     <defs>
      <path id="NimbusRomNo9L-Regu-41" d="M 4518 128 
C 4230 128 4166 192 3942 667 
L 2349 4320 
L 2221 4320 
L 890 1168 
C 480 231 403 128 96 128 
L 96 0 
L 1363 0 
L 1363 128 
C 1056 128 928 212 928 393 
C 928 470 947 560 979 645 
L 1274 1401 
L 2950 1401 
L 3213 778 
C 3290 602 3334 434 3334 342 
C 3334 180 3226 128 2886 128 
L 2886 0 
L 4518 0 
L 4518 128 
z
M 1382 1664 
L 2118 3416 
L 2861 1664 
L 1382 1664 
z
" transform="scale(0.015625)"/>
      <path id="NimbusRomNo9L-Regu-6e" d="M 102 2579 
C 141 2598 205 2605 275 2605 
C 454 2605 512 2509 512 2195 
L 512 608 
C 512 243 442 154 115 128 
L 115 32 
L 1472 32 
L 1472 128 
C 1146 154 1050 230 1050 461 
L 1050 2259 
C 1357 2547 1498 2624 1709 2624 
C 2022 2624 2176 2426 2176 2003 
L 2176 666 
C 2176 262 2093 154 1773 128 
L 1773 32 
L 3104 32 
L 3104 128 
C 2790 160 2714 237 2714 550 
L 2714 2016 
C 2714 2618 2432 2976 1958 2976 
C 1664 2976 1466 2867 1030 2458 
L 1030 2963 
L 986 2976 
C 672 2861 454 2790 102 2688 
L 102 2579 
z
" transform="scale(0.015625)"/>
      <path id="NimbusRomNo9L-Regu-63" d="M 2547 998 
C 2240 550 2010 397 1645 397 
C 1062 397 653 909 653 1645 
C 653 2304 1005 2758 1523 2758 
C 1754 2758 1837 2688 1901 2451 
L 1939 2310 
C 1990 2131 2106 2016 2240 2016 
C 2406 2016 2547 2138 2547 2285 
C 2547 2643 2099 2944 1562 2944 
C 1248 2944 922 2816 659 2586 
C 339 2304 160 1869 160 1363 
C 160 531 666 -64 1376 -64 
C 1664 -64 1920 38 2150 237 
C 2323 390 2445 563 2637 941 
L 2547 998 
z
" transform="scale(0.015625)"/>
      <path id="NimbusRomNo9L-Regu-69" d="M 1120 2929 
L 128 2579 
L 128 2484 
L 179 2490 
C 256 2502 339 2509 397 2509 
C 550 2509 608 2406 608 2125 
L 608 640 
C 608 179 544 109 102 109 
L 102 0 
L 1619 0 
L 1619 96 
C 1197 128 1146 191 1146 650 
L 1146 2910 
L 1120 2929 
z
M 819 4352 
C 646 4352 499 4205 499 4026 
C 499 3847 640 3699 819 3699 
C 1005 3699 1152 3840 1152 4026 
C 1152 4205 1005 4352 819 4352 
z
" transform="scale(0.015625)"/>
      <path id="NimbusRomNo9L-Regu-32" d="M 3040 875 
L 2957 907 
C 2720 544 2637 486 2349 486 
L 819 486 
L 1894 1609 
C 2464 2202 2714 2687 2714 3185 
C 2714 3823 2195 4313 1530 4313 
C 1178 4313 845 4173 608 3918 
C 403 3700 307 3496 198 3043 
L 333 3011 
C 589 3636 819 3840 1261 3840 
C 1798 3840 2163 3476 2163 2940 
C 2163 2443 1869 1850 1331 1282 
L 192 77 
L 192 0 
L 2688 0 
L 3040 875 
z
" transform="scale(0.015625)"/>
      <path id="NimbusRomNo9L-Regu-34" d="M 3021 1497 
L 2368 1497 
L 2368 4352 
L 2086 4352 
L 77 1497 
L 77 1088 
L 1875 1088 
L 1875 32 
L 2368 32 
L 2368 1088 
L 3021 1088 
L 3021 1497 
z
M 1869 1497 
L 333 1497 
L 1869 3698 
L 1869 1497 
z
" transform="scale(0.015625)"/>
     </defs>
     <use xlink:href="#NimbusRomNo9L-Regu-41" transform="scale(0.996264)"/>
     <use xlink:href="#NimbusRomNo9L-Regu-6e" transform="translate(71.929985 0) scale(0.996264)"/>
     <use xlink:href="#NimbusRomNo9L-Regu-63" transform="translate(121.743185 0) scale(0.996264)"/>
     <use xlink:href="#NimbusRomNo9L-Regu-61" transform="translate(165.976754 0) scale(0.996264)"/>
     <use xlink:href="#NimbusRomNo9L-Regu-72" transform="translate(210.210323 0) scale(0.996264)"/>
     <use xlink:href="#NimbusRomNo9L-Regu-61" transform="translate(243.385552 0) scale(0.996264)"/>
     <use xlink:href="#NimbusRomNo9L-Regu-6e" transform="translate(287.619121 0) scale(0.996264)"/>
     <use xlink:href="#NimbusRomNo9L-Regu-69" transform="translate(337.432322 0) scale(0.996264)"/>
     <use xlink:href="#NimbusRomNo9L-Regu-28" transform="translate(390.034092 0) scale(0.996264)"/>
     <use xlink:href="#NimbusRomNo9L-Regu-32" transform="translate(423.209321 0) scale(0.996264)"/>
     <use xlink:href="#NimbusRomNo9L-Regu-30" transform="translate(473.022522 0) scale(0.996264)"/>
     <use xlink:href="#NimbusRomNo9L-Regu-32" transform="translate(522.835722 0) scale(0.996264)"/>
     <use xlink:href="#NimbusRomNo9L-Regu-34" transform="translate(572.648923 0) scale(0.996264)"/>
     <use xlink:href="#NimbusRomNo9L-Regu-29" transform="translate(622.462123 0) scale(0.996264)"/>
    </g>
   </g>
   <g id="legend_1">
    <g id="patch_131">
     <path d="M 296.424213 59.025895 
L 550.948819 59.025895 
L 550.948819 31.574968 
L 296.424213 31.574968 
z
" style="fill: #ffffff; opacity: 0.8; stroke: #cccccc; stroke-linejoin: miter"/>
    </g>
    <g id="patch_132">
     <path d="M 302.824213 49.174968 
L 334.824213 49.174968 
L 334.824213 37.974968 
L 302.824213 37.974968 
z
" style="fill: #9467bd"/>
    </g>
    <g id="text_6">
     <!-- Farmer -->
     <g transform="translate(347.624213 49.174968) scale(0.16 -0.16)">
      <defs>
       <path id="NimbusRomNo9L-Regu-46" d="M 3066 1472 
L 3066 2957 
L 2918 2957 
C 2842 2461 2726 2368 2214 2368 
L 1286 2368 
L 1286 3766 
C 1286 3943 1318 3981 1491 3981 
L 2362 3981 
C 3085 3981 3226 3886 3334 3314 
L 3494 3314 
L 3475 4224 
L 77 4224 
L 77 4102 
C 550 4064 634 3974 634 3525 
L 634 749 
C 634 217 563 134 77 134 
L 77 0 
L 1869 0 
L 1869 134 
C 1376 134 1286 225 1286 692 
L 1286 2106 
L 2214 2106 
C 2733 2106 2842 2007 2918 1472 
L 3066 1472 
z
" transform="scale(0.015625)"/>
       <path id="NimbusRomNo9L-Regu-6d" d="M 122 2547 
C 205 2566 256 2573 326 2573 
C 493 2573 550 2470 550 2162 
L 550 539 
C 550 192 461 96 102 96 
L 102 0 
L 1523 0 
L 1523 96 
C 1184 96 1088 166 1088 418 
L 1088 2234 
C 1088 2246 1139 2310 1184 2355 
C 1344 2502 1619 2611 1843 2611 
C 2125 2611 2266 2385 2266 1932 
L 2266 528 
C 2266 167 2195 96 1830 96 
L 1830 0 
L 3264 0 
L 3264 96 
C 2899 96 2803 205 2803 603 
L 2803 2221 
C 2995 2496 3206 2611 3501 2611 
C 3866 2611 3981 2438 3981 1907 
L 3981 557 
C 3981 192 3930 141 3558 96 
L 3558 0 
L 4960 0 
L 4960 96 
L 4794 115 
C 4602 115 4518 230 4518 480 
L 4518 1802 
C 4518 2559 4269 2944 3776 2944 
C 3405 2944 3078 2778 2733 2407 
C 2618 2771 2400 2944 2054 2944 
C 1773 2944 1594 2854 1062 2451 
L 1062 2931 
L 1018 2944 
C 691 2822 474 2752 122 2656 
L 122 2547 
z
" transform="scale(0.015625)"/>
      </defs>
      <use xlink:href="#NimbusRomNo9L-Regu-46" transform="scale(0.996264)"/>
      <use xlink:href="#NimbusRomNo9L-Regu-61" transform="translate(53.898284 0) scale(0.996264)"/>
      <use xlink:href="#NimbusRomNo9L-Regu-72" transform="translate(98.131853 0) scale(0.996264)"/>
      <use xlink:href="#NimbusRomNo9L-Regu-6d" transform="translate(131.307083 0) scale(0.996264)"/>
      <use xlink:href="#NimbusRomNo9L-Regu-65" transform="translate(208.815453 0) scale(0.996264)"/>
      <use xlink:href="#NimbusRomNo9L-Regu-72" transform="translate(253.049021 0) scale(0.996264)"/>
     </g>
    </g>
    <g id="patch_133">
     <path d="M 425.420099 49.174968 
L 457.420099 49.174968 
L 457.420099 37.974968 
L 425.420099 37.974968 
z
" style="fill: #1f77b4"/>
    </g>
    <g id="text_7">
     <!-- SMARTER -->
     <g transform="translate(470.220099 49.174968) scale(0.16 -0.16)">
      <defs>
       <path id="NimbusRomNo9L-Regu-53" d="M 2861 4352 
L 2726 4352 
C 2701 4205 2630 4135 2522 4135 
C 2458 4135 2349 4160 2240 4212 
C 2003 4301 1766 4352 1562 4352 
C 1286 4352 1005 4244 794 4058 
C 570 3859 454 3590 454 3256 
C 454 2743 736 2385 1453 2006 
C 1914 1763 2246 1499 2406 1256 
C 2464 1173 2496 1038 2496 884 
C 2496 454 2176 160 1709 160 
C 1139 160 736 513 416 1296 
L 269 1296 
L 461 -64 
L 602 -64 
C 608 57 685 147 781 147 
C 851 147 960 122 1082 79 
C 1325 -14 1581 -64 1837 -64 
C 2573 -64 3142 442 3142 1101 
C 3142 1626 2790 2042 1946 2496 
C 1274 2868 1005 3149 1005 3495 
C 1005 3847 1274 4090 1670 4090 
C 1958 4090 2227 3968 2451 3738 
C 2650 3533 2739 3367 2842 2989 
L 3002 2989 
L 2861 4352 
z
" transform="scale(0.015625)"/>
       <path id="NimbusRomNo9L-Regu-4d" d="M 4314 3667 
L 4314 751 
C 4314 217 4237 134 3731 134 
L 3731 0 
L 5523 0 
L 5523 134 
C 5056 134 4966 223 4966 681 
L 4966 3536 
C 4966 3993 5050 4077 5523 4115 
L 5523 4237 
L 4250 4237 
L 2835 1004 
L 1357 4237 
L 90 4237 
L 90 4096 
C 614 4096 698 4019 698 3550 
L 698 943 
C 698 282 608 159 77 121 
L 77 0 
L 1581 0 
L 1581 134 
C 1088 134 979 282 979 931 
L 979 3520 
L 2586 0 
L 2675 0 
L 4314 3667 
z
" transform="scale(0.015625)"/>
       <path id="NimbusRomNo9L-Regu-52" d="M 4218 121 
C 3974 140 3846 205 3661 424 
L 2342 2061 
C 2771 2143 2963 2219 3174 2388 
C 3379 2553 3501 2818 3501 3113 
C 3501 3385 3418 3618 3251 3801 
C 3008 4059 2477 4224 1875 4224 
L 109 4224 
L 109 4102 
C 589 4051 653 3981 653 3528 
L 653 765 
C 653 236 589 159 109 121 
L 109 0 
L 1882 0 
L 1882 134 
C 1389 134 1306 219 1306 692 
L 1306 1984 
L 1664 1984 
L 3187 0 
L 4218 0 
L 4218 121 
z
M 1306 3762 
C 1306 3937 1376 3987 1632 3987 
C 2432 3987 2803 3716 2803 3123 
C 2803 2807 2669 2542 2438 2423 
C 2144 2258 1920 2221 1306 2221 
L 1306 3762 
z
" transform="scale(0.015625)"/>
       <path id="NimbusRomNo9L-Regu-54" d="M 1626 3968 
L 1626 751 
C 1626 204 1555 134 1024 134 
L 1024 0 
L 2893 0 
L 2893 134 
C 2368 134 2278 217 2278 687 
L 2278 3968 
L 2624 3968 
C 3354 3968 3494 3853 3642 3149 
L 3795 3149 
L 3757 4237 
L 147 4237 
L 109 3149 
L 262 3149 
C 416 3846 563 3968 1280 3968 
L 1626 3968 
z
" transform="scale(0.015625)"/>
       <path id="NimbusRomNo9L-Regu-45" d="M 3821 1078 
L 3642 1078 
C 3322 389 3046 237 2131 237 
L 1958 237 
C 1645 237 1376 269 1331 315 
C 1299 334 1286 404 1286 514 
L 1286 2106 
L 2272 2106 
C 2797 2106 2893 2020 2976 1472 
L 3123 1472 
L 3123 2957 
L 2976 2957 
C 2931 2703 2906 2610 2835 2523 
C 2752 2417 2573 2368 2272 2368 
L 1286 2368 
L 1286 3766 
C 1286 3943 1325 3981 1498 3981 
L 2362 3981 
C 3085 3981 3226 3886 3334 3314 
L 3494 3314 
L 3475 4224 
L 77 4224 
L 77 4102 
C 550 4064 634 3974 634 3525 
L 634 679 
C 634 230 544 134 77 134 
L 77 0 
L 3533 0 
L 3821 1078 
z
" transform="scale(0.015625)"/>
      </defs>
      <use xlink:href="#NimbusRomNo9L-Regu-53" transform="scale(0.996264)"/>
      <use xlink:href="#NimbusRomNo9L-Regu-4d" transform="translate(55.391677 0) scale(0.996264)"/>
      <use xlink:href="#NimbusRomNo9L-Regu-41" transform="translate(143.958584 0) scale(0.996264)"/>
      <use xlink:href="#NimbusRomNo9L-Regu-52" transform="translate(215.888569 0) scale(0.996264)"/>
      <use xlink:href="#NimbusRomNo9L-Regu-54" transform="translate(276.361152 0) scale(0.996264)"/>
      <use xlink:href="#NimbusRomNo9L-Regu-45" transform="translate(337.232783 0) scale(0.996264)"/>
      <use xlink:href="#NimbusRomNo9L-Regu-52" transform="translate(398.104414 0) scale(0.996264)"/>
     </g>
    </g>
   </g>
  </g>
  <g id="axes_2">
   <g id="patch_134">
    <path d="M 58.478478 375.203493 
L 828.432849 375.203493 
L 828.432849 252.59343 
L 58.478478 252.59343 
z
" style="fill: #ffffff"/>
   </g>
   <g id="patch_135">
    <path d="M 61.583132 375.203493 
L 64.687787 375.203493 
L 64.687787 275.125394 
L 61.583132 275.125394 
z
" clip-path="url(#p0b36b96680)" style="fill: #9467bd"/>
   </g>
   <g id="patch_136">
    <path d="M 74.001751 375.203493 
L 77.106406 375.203493 
L 77.106406 287.131476 
L 74.001751 287.131476 
z
" clip-path="url(#p0b36b96680)" style="fill: #9467bd"/>
   </g>
   <g id="patch_137">
    <path d="M 86.42037 375.203493 
L 89.525025 375.203493 
L 89.525025 287.953811 
L 86.42037 287.953811 
z
" clip-path="url(#p0b36b96680)" style="fill: #9467bd"/>
   </g>
   <g id="patch_138">
    <path d="M 98.838989 375.203493 
L 101.943644 375.203493 
L 101.943644 292.065483 
L 98.838989 292.065483 
z
" clip-path="url(#p0b36b96680)" style="fill: #9467bd"/>
   </g>
   <g id="patch_139">
    <path d="M 111.257608 375.203493 
L 114.362263 375.203493 
L 114.362263 285.651274 
L 111.257608 285.651274 
z
" clip-path="url(#p0b36b96680)" style="fill: #9467bd"/>
   </g>
   <g id="patch_140">
    <path d="M 123.676227 375.203493 
L 126.780881 375.203493 
L 126.780881 291.736549 
L 123.676227 291.736549 
z
" clip-path="url(#p0b36b96680)" style="fill: #9467bd"/>
   </g>
   <g id="patch_141">
    <path d="M 136.094846 375.203493 
L 139.1995 375.203493 
L 139.1995 285.897975 
L 136.094846 285.897975 
z
" clip-path="url(#p0b36b96680)" style="fill: #9467bd"/>
   </g>
   <g id="patch_142">
    <path d="M 148.513464 375.203493 
L 151.618119 375.203493 
L 151.618119 292.065483 
L 148.513464 292.065483 
z
" clip-path="url(#p0b36b96680)" style="fill: #9467bd"/>
   </g>
   <g id="patch_143">
    <path d="M 160.932083 375.203493 
L 164.036738 375.203493 
L 164.036738 282.608637 
L 160.932083 282.608637 
z
" clip-path="url(#p0b36b96680)" style="fill: #9467bd"/>
   </g>
   <g id="patch_144">
    <path d="M 173.350702 375.203493 
L 176.455357 375.203493 
L 176.455357 273.398491 
L 173.350702 273.398491 
z
" clip-path="url(#p0b36b96680)" style="fill: #9467bd"/>
   </g>
   <g id="patch_145">
    <path d="M 185.769321 375.203493 
L 188.873976 375.203493 
L 188.873976 260.487841 
L 185.769321 260.487841 
z
" clip-path="url(#p0b36b96680)" style="fill: #9467bd"/>
   </g>
   <g id="patch_146">
    <path d="M 198.18794 375.203493 
L 201.292595 375.203493 
L 201.292595 261.968043 
L 198.18794 261.968043 
z
" clip-path="url(#p0b36b96680)" style="fill: #9467bd"/>
   </g>
   <g id="patch_147">
    <path d="M 210.606559 375.203493 
L 213.711214 375.203493 
L 213.711214 262.790377 
L 210.606559 262.790377 
z
" clip-path="url(#p0b36b96680)" style="fill: #9467bd"/>
   </g>
   <g id="patch_148">
    <path d="M 223.025178 375.203493 
L 226.129833 375.203493 
L 226.129833 265.586314 
L 223.025178 265.586314 
z
" clip-path="url(#p0b36b96680)" style="fill: #9467bd"/>
   </g>
   <g id="patch_149">
    <path d="M 235.443797 375.203493 
L 238.548451 375.203493 
L 238.548451 284.746706 
L 235.443797 284.746706 
z
" clip-path="url(#p0b36b96680)" style="fill: #9467bd"/>
   </g>
   <g id="patch_150">
    <path d="M 247.862416 375.203493 
L 250.96707 375.203493 
L 250.96707 275.701028 
L 247.862416 275.701028 
z
" clip-path="url(#p0b36b96680)" style="fill: #9467bd"/>
   </g>
   <g id="patch_151">
    <path d="M 260.281034 375.203493 
L 263.385689 375.203493 
L 263.385689 265.01068 
L 260.281034 265.01068 
z
" clip-path="url(#p0b36b96680)" style="fill: #9467bd"/>
   </g>
   <g id="patch_152">
    <path d="M 272.699653 375.203493 
L 275.804308 375.203493 
L 275.804308 266.984283 
L 272.699653 266.984283 
z
" clip-path="url(#p0b36b96680)" style="fill: #9467bd"/>
   </g>
   <g id="patch_153">
    <path d="M 285.118272 375.203493 
L 288.222927 375.203493 
L 288.222927 269.369053 
L 285.118272 269.369053 
z
" clip-path="url(#p0b36b96680)" style="fill: #9467bd"/>
   </g>
   <g id="patch_154">
    <path d="M 297.536891 375.203493 
L 300.641546 375.203493 
L 300.641546 289.105079 
L 297.536891 289.105079 
z
" clip-path="url(#p0b36b96680)" style="fill: #9467bd"/>
   </g>
   <g id="patch_155">
    <path d="M 309.95551 375.203493 
L 313.060165 375.203493 
L 313.060165 292.970051 
L 309.95551 292.970051 
z
" clip-path="url(#p0b36b96680)" style="fill: #9467bd"/>
   </g>
   <g id="patch_156">
    <path d="M 322.374129 375.203493 
L 325.478784 375.203493 
L 325.478784 286.309142 
L 322.374129 286.309142 
z
" clip-path="url(#p0b36b96680)" style="fill: #9467bd"/>
   </g>
   <g id="patch_157">
    <path d="M 334.792748 375.203493 
L 337.897403 375.203493 
L 337.897403 285.651274 
L 334.792748 285.651274 
z
" clip-path="url(#p0b36b96680)" style="fill: #9467bd"/>
   </g>
   <g id="patch_158">
    <path d="M 347.211367 375.203493 
L 350.316021 375.203493 
L 350.316021 285.897975 
L 347.211367 285.897975 
z
" clip-path="url(#p0b36b96680)" style="fill: #9467bd"/>
   </g>
   <g id="patch_159">
    <path d="M 359.629986 375.203493 
L 362.73464 375.203493 
L 362.73464 294.285786 
L 359.629986 294.285786 
z
" clip-path="url(#p0b36b96680)" style="fill: #9467bd"/>
   </g>
   <g id="patch_160">
    <path d="M 372.048604 375.203493 
L 375.153259 375.203493 
L 375.153259 293.463451 
L 372.048604 293.463451 
z
" clip-path="url(#p0b36b96680)" style="fill: #9467bd"/>
   </g>
   <g id="patch_161">
    <path d="M 384.467223 375.203493 
L 387.571878 375.203493 
L 387.571878 297.904057 
L 384.467223 297.904057 
z
" clip-path="url(#p0b36b96680)" style="fill: #9467bd"/>
   </g>
   <g id="patch_162">
    <path d="M 396.885842 375.203493 
L 399.990497 375.203493 
L 399.990497 297.328423 
L 396.885842 297.328423 
z
" clip-path="url(#p0b36b96680)" style="fill: #9467bd"/>
   </g>
   <g id="patch_163">
    <path d="M 409.304461 375.203493 
L 412.409116 375.203493 
L 412.409116 314.350746 
L 409.304461 314.350746 
z
" clip-path="url(#p0b36b96680)" style="fill: #9467bd"/>
   </g>
   <g id="patch_164">
    <path d="M 421.72308 375.203493 
L 424.827735 375.203493 
L 424.827735 317.228916 
L 421.72308 317.228916 
z
" clip-path="url(#p0b36b96680)" style="fill: #9467bd"/>
   </g>
   <g id="patch_165">
    <path d="M 434.141699 375.203493 
L 437.246354 375.203493 
L 437.246354 263.283778 
L 434.141699 263.283778 
z
" clip-path="url(#p0b36b96680)" style="fill: #9467bd"/>
   </g>
   <g id="patch_166">
    <path d="M 446.560318 375.203493 
L 449.664973 375.203493 
L 449.664973 265.175147 
L 446.560318 265.175147 
z
" clip-path="url(#p0b36b96680)" style="fill: #9467bd"/>
   </g>
   <g id="patch_167">
    <path d="M 458.978937 375.203493 
L 462.083591 375.203493 
L 462.083591 267.806617 
L 458.978937 267.806617 
z
" clip-path="url(#p0b36b96680)" style="fill: #9467bd"/>
   </g>
   <g id="patch_168">
    <path d="M 471.397556 375.203493 
L 474.50221 375.203493 
L 474.50221 341.816716 
L 471.397556 341.816716 
z
" clip-path="url(#p0b36b96680)" style="fill: #9467bd"/>
   </g>
   <g id="patch_169">
    <path d="M 483.816175 375.203493 
L 486.920829 375.203493 
L 486.920829 304.318266 
L 483.816175 304.318266 
z
" clip-path="url(#p0b36b96680)" style="fill: #9467bd"/>
   </g>
   <g id="patch_170">
    <path d="M 496.234793 375.203493 
L 499.339448 375.203493 
L 499.339448 309.087805 
L 496.234793 309.087805 
z
" clip-path="url(#p0b36b96680)" style="fill: #9467bd"/>
   </g>
   <g id="patch_171">
    <path d="M 508.653412 375.203493 
L 511.758067 375.203493 
L 511.758067 308.512171 
L 508.653412 308.512171 
z
" clip-path="url(#p0b36b96680)" style="fill: #9467bd"/>
   </g>
   <g id="patch_172">
    <path d="M 521.072031 375.203493 
L 524.176686 375.203493 
L 524.176686 302.75583 
L 521.072031 302.75583 
z
" clip-path="url(#p0b36b96680)" style="fill: #9467bd"/>
   </g>
   <g id="patch_173">
    <path d="M 533.49065 375.203493 
L 536.595305 375.203493 
L 536.595305 373.229891 
L 533.49065 373.229891 
z
" clip-path="url(#p0b36b96680)" style="fill: #9467bd"/>
   </g>
   <g id="patch_174">
    <path d="M 545.909269 375.203493 
L 549.013924 375.203493 
L 549.013924 287.049243 
L 545.909269 287.049243 
z
" clip-path="url(#p0b36b96680)" style="fill: #9467bd"/>
   </g>
   <g id="patch_175">
    <path d="M 558.327888 375.203493 
L 561.432543 375.203493 
L 561.432543 289.927413 
L 558.327888 289.927413 
z
" clip-path="url(#p0b36b96680)" style="fill: #9467bd"/>
   </g>
   <g id="patch_176">
    <path d="M 570.746507 375.203493 
L 573.851161 375.203493 
L 573.851161 286.062441 
L 570.746507 286.062441 
z
" clip-path="url(#p0b36b96680)" style="fill: #9467bd"/>
   </g>
   <g id="patch_177">
    <path d="M 583.165126 375.203493 
L 586.26978 375.203493 
L 586.26978 286.884776 
L 583.165126 286.884776 
z
" clip-path="url(#p0b36b96680)" style="fill: #9467bd"/>
   </g>
   <g id="patch_178">
    <path d="M 595.583745 375.203493 
L 598.688399 375.203493 
L 598.688399 295.025887 
L 595.583745 295.025887 
z
" clip-path="url(#p0b36b96680)" style="fill: #9467bd"/>
   </g>
   <g id="patch_179">
    <path d="M 608.002363 375.203493 
L 611.107018 375.203493 
L 611.107018 294.779186 
L 608.002363 294.779186 
z
" clip-path="url(#p0b36b96680)" style="fill: #9467bd"/>
   </g>
   <g id="patch_180">
    <path d="M 620.420982 375.203493 
L 623.525637 375.203493 
L 623.525637 315.666481 
L 620.420982 315.666481 
z
" clip-path="url(#p0b36b96680)" style="fill: #9467bd"/>
   </g>
   <g id="patch_181">
    <path d="M 632.839601 375.203493 
L 635.944256 375.203493 
L 635.944256 336.142608 
L 632.839601 336.142608 
z
" clip-path="url(#p0b36b96680)" style="fill: #9467bd"/>
   </g>
   <g id="patch_182">
    <path d="M 645.25822 375.203493 
L 648.362875 375.203493 
L 648.362875 292.72335 
L 645.25822 292.72335 
z
" clip-path="url(#p0b36b96680)" style="fill: #9467bd"/>
   </g>
   <g id="patch_183">
    <path d="M 657.676839 375.203493 
L 660.781494 375.203493 
L 660.781494 375.203493 
L 657.676839 375.203493 
z
" clip-path="url(#p0b36b96680)" style="fill: #9467bd"/>
   </g>
   <g id="patch_184">
    <path d="M 670.095458 375.203493 
L 673.200113 375.203493 
L 673.200113 375.203493 
L 670.095458 375.203493 
z
" clip-path="url(#p0b36b96680)" style="fill: #9467bd"/>
   </g>
   <g id="patch_185">
    <path d="M 682.514077 375.203493 
L 685.618731 375.203493 
L 685.618731 375.203493 
L 682.514077 375.203493 
z
" clip-path="url(#p0b36b96680)" style="fill: #9467bd"/>
   </g>
   <g id="patch_186">
    <path d="M 694.932696 375.203493 
L 698.03735 375.203493 
L 698.03735 375.12126 
L 694.932696 375.12126 
z
" clip-path="url(#p0b36b96680)" style="fill: #9467bd"/>
   </g>
   <g id="patch_187">
    <path d="M 707.351315 375.203493 
L 710.455969 375.203493 
L 710.455969 375.203493 
L 707.351315 375.203493 
z
" clip-path="url(#p0b36b96680)" style="fill: #9467bd"/>
   </g>
   <g id="patch_188">
    <path d="M 719.769933 375.203493 
L 722.874588 375.203493 
L 722.874588 317.55785 
L 719.769933 317.55785 
z
" clip-path="url(#p0b36b96680)" style="fill: #9467bd"/>
   </g>
   <g id="patch_189">
    <path d="M 732.188552 375.203493 
L 735.293207 375.203493 
L 735.293207 337.129409 
L 732.188552 337.129409 
z
" clip-path="url(#p0b36b96680)" style="fill: #9467bd"/>
   </g>
   <g id="patch_190">
    <path d="M 744.607171 375.203493 
L 747.711826 375.203493 
L 747.711826 339.843113 
L 744.607171 339.843113 
z
" clip-path="url(#p0b36b96680)" style="fill: #9467bd"/>
   </g>
   <g id="patch_191">
    <path d="M 757.02579 375.203493 
L 760.130445 375.203493 
L 760.130445 325.287794 
L 757.02579 325.287794 
z
" clip-path="url(#p0b36b96680)" style="fill: #9467bd"/>
   </g>
   <g id="patch_192">
    <path d="M 769.444409 375.203493 
L 772.549064 375.203493 
L 772.549064 312.29491 
L 769.444409 312.29491 
z
" clip-path="url(#p0b36b96680)" style="fill: #9467bd"/>
   </g>
   <g id="patch_193">
    <path d="M 781.863028 375.203493 
L 784.967683 375.203493 
L 784.967683 321.422822 
L 781.863028 321.422822 
z
" clip-path="url(#p0b36b96680)" style="fill: #9467bd"/>
   </g>
   <g id="patch_194">
    <path d="M 794.281647 375.203493 
L 797.386302 375.203493 
L 797.386302 318.297951 
L 794.281647 318.297951 
z
" clip-path="url(#p0b36b96680)" style="fill: #9467bd"/>
   </g>
   <g id="patch_195">
    <path d="M 806.700266 375.203493 
L 809.80492 375.203493 
L 809.80492 306.127401 
L 806.700266 306.127401 
z
" clip-path="url(#p0b36b96680)" style="fill: #9467bd"/>
   </g>
   <g id="patch_196">
    <path d="M 819.118885 375.203493 
L 822.223539 375.203493 
L 822.223539 294.121319 
L 819.118885 294.121319 
z
" clip-path="url(#p0b36b96680)" style="fill: #9467bd"/>
   </g>
   <g id="patch_197">
    <path d="M 64.687787 375.203493 
L 67.792442 375.203493 
L 67.792442 324.218759 
L 64.687787 324.218759 
z
" clip-path="url(#p0b36b96680)" style="fill: #1f77b4"/>
   </g>
   <g id="patch_198">
    <path d="M 77.106406 375.203493 
L 80.211061 375.203493 
L 80.211061 321.505055 
L 77.106406 321.505055 
z
" clip-path="url(#p0b36b96680)" style="fill: #1f77b4"/>
   </g>
   <g id="patch_199">
    <path d="M 89.525025 375.203493 
L 92.629679 375.203493 
L 92.629679 317.146683 
L 89.525025 317.146683 
z
" clip-path="url(#p0b36b96680)" style="fill: #1f77b4"/>
   </g>
   <g id="patch_200">
    <path d="M 101.943644 375.203493 
L 105.048298 375.203493 
L 105.048298 324.465459 
L 101.943644 324.465459 
z
" clip-path="url(#p0b36b96680)" style="fill: #1f77b4"/>
   </g>
   <g id="patch_201">
    <path d="M 114.362263 375.203493 
L 117.466917 375.203493 
L 117.466917 328.906065 
L 114.362263 328.906065 
z
" clip-path="url(#p0b36b96680)" style="fill: #1f77b4"/>
   </g>
   <g id="patch_202">
    <path d="M 126.780881 375.203493 
L 129.885536 375.203493 
L 129.885536 287.70711 
L 126.780881 287.70711 
z
" clip-path="url(#p0b36b96680)" style="fill: #1f77b4"/>
   </g>
   <g id="patch_203">
    <path d="M 139.1995 375.203493 
L 142.304155 375.203493 
L 142.304155 299.466493 
L 139.1995 299.466493 
z
" clip-path="url(#p0b36b96680)" style="fill: #1f77b4"/>
   </g>
   <g id="patch_204">
    <path d="M 151.618119 375.203493 
L 154.722774 375.203493 
L 154.722774 313.528411 
L 151.618119 313.528411 
z
" clip-path="url(#p0b36b96680)" style="fill: #1f77b4"/>
   </g>
   <g id="patch_205">
    <path d="M 164.036738 375.203493 
L 167.141393 375.203493 
L 167.141393 315.41978 
L 164.036738 315.41978 
z
" clip-path="url(#p0b36b96680)" style="fill: #1f77b4"/>
   </g>
   <g id="patch_206">
    <path d="M 176.455357 375.203493 
L 179.560012 375.203493 
L 179.560012 313.281711 
L 176.455357 313.281711 
z
" clip-path="url(#p0b36b96680)" style="fill: #1f77b4"/>
   </g>
   <g id="patch_207">
    <path d="M 188.873976 375.203493 
L 191.978631 375.203493 
L 191.978631 307.689837 
L 188.873976 307.689837 
z
" clip-path="url(#p0b36b96680)" style="fill: #1f77b4"/>
   </g>
   <g id="patch_208">
    <path d="M 201.292595 375.203493 
L 204.397249 375.203493 
L 204.397249 299.302026 
L 201.292595 299.302026 
z
" clip-path="url(#p0b36b96680)" style="fill: #1f77b4"/>
   </g>
   <g id="patch_209">
    <path d="M 213.711214 375.203493 
L 216.815868 375.203493 
L 216.815868 291.160915 
L 213.711214 291.160915 
z
" clip-path="url(#p0b36b96680)" style="fill: #1f77b4"/>
   </g>
   <g id="patch_210">
    <path d="M 226.129833 375.203493 
L 229.234487 375.203493 
L 229.234487 285.651274 
L 226.129833 285.651274 
z
" clip-path="url(#p0b36b96680)" style="fill: #1f77b4"/>
   </g>
   <g id="patch_211">
    <path d="M 238.548451 375.203493 
L 241.653106 375.203493 
L 241.653106 276.358895 
L 238.548451 276.358895 
z
" clip-path="url(#p0b36b96680)" style="fill: #1f77b4"/>
   </g>
   <g id="patch_212">
    <path d="M 250.96707 375.203493 
L 254.071725 375.203493 
L 254.071725 274.138592 
L 250.96707 274.138592 
z
" clip-path="url(#p0b36b96680)" style="fill: #1f77b4"/>
   </g>
   <g id="patch_213">
    <path d="M 263.385689 375.203493 
L 266.490344 375.203493 
L 266.490344 263.941645 
L 263.385689 263.941645 
z
" clip-path="url(#p0b36b96680)" style="fill: #1f77b4"/>
   </g>
   <g id="patch_214">
    <path d="M 275.804308 375.203493 
L 278.908963 375.203493 
L 278.908963 313.281711 
L 275.804308 313.281711 
z
" clip-path="url(#p0b36b96680)" style="fill: #1f77b4"/>
   </g>
   <g id="patch_215">
    <path d="M 288.222927 375.203493 
L 291.327582 375.203493 
L 291.327582 303.002531 
L 288.222927 303.002531 
z
" clip-path="url(#p0b36b96680)" style="fill: #1f77b4"/>
   </g>
   <g id="patch_216">
    <path d="M 300.641546 375.203493 
L 303.746201 375.203493 
L 303.746201 295.025887 
L 300.641546 295.025887 
z
" clip-path="url(#p0b36b96680)" style="fill: #1f77b4"/>
   </g>
   <g id="patch_217">
    <path d="M 313.060165 375.203493 
L 316.164819 375.203493 
L 316.164819 289.434013 
L 313.060165 289.434013 
z
" clip-path="url(#p0b36b96680)" style="fill: #1f77b4"/>
   </g>
   <g id="patch_218">
    <path d="M 325.478784 375.203493 
L 328.583438 375.203493 
L 328.583438 285.32234 
L 325.478784 285.32234 
z
" clip-path="url(#p0b36b96680)" style="fill: #1f77b4"/>
   </g>
   <g id="patch_219">
    <path d="M 337.897403 375.203493 
L 341.002057 375.203493 
L 341.002057 289.598479 
L 337.897403 289.598479 
z
" clip-path="url(#p0b36b96680)" style="fill: #1f77b4"/>
   </g>
   <g id="patch_220">
    <path d="M 350.316021 375.203493 
L 353.420676 375.203493 
L 353.420676 284.253306 
L 350.316021 284.253306 
z
" clip-path="url(#p0b36b96680)" style="fill: #1f77b4"/>
   </g>
   <g id="patch_221">
    <path d="M 362.73464 375.203493 
L 365.839295 375.203493 
L 365.839295 289.598479 
L 362.73464 289.598479 
z
" clip-path="url(#p0b36b96680)" style="fill: #1f77b4"/>
   </g>
   <g id="patch_222">
    <path d="M 375.153259 375.203493 
L 378.257914 375.203493 
L 378.257914 285.240107 
L 375.153259 285.240107 
z
" clip-path="url(#p0b36b96680)" style="fill: #1f77b4"/>
   </g>
   <g id="patch_223">
    <path d="M 387.571878 375.203493 
L 390.676533 375.203493 
L 390.676533 277.263463 
L 387.571878 277.263463 
z
" clip-path="url(#p0b36b96680)" style="fill: #1f77b4"/>
   </g>
   <g id="patch_224">
    <path d="M 399.990497 375.203493 
L 403.095152 375.203493 
L 403.095152 267.724384 
L 399.990497 267.724384 
z
" clip-path="url(#p0b36b96680)" style="fill: #1f77b4"/>
   </g>
   <g id="patch_225">
    <path d="M 412.409116 375.203493 
L 415.513771 375.203493 
L 415.513771 280.963968 
L 412.409116 280.963968 
z
" clip-path="url(#p0b36b96680)" style="fill: #1f77b4"/>
   </g>
   <g id="patch_226">
    <path d="M 424.827735 375.203493 
L 427.93239 375.203493 
L 427.93239 282.19747 
L 424.827735 282.19747 
z
" clip-path="url(#p0b36b96680)" style="fill: #1f77b4"/>
   </g>
   <g id="patch_227">
    <path d="M 437.246354 375.203493 
L 440.351008 375.203493 
L 440.351008 268.546718 
L 437.246354 268.546718 
z
" clip-path="url(#p0b36b96680)" style="fill: #1f77b4"/>
   </g>
   <g id="patch_228">
    <path d="M 449.664973 375.203493 
L 452.769627 375.203493 
L 452.769627 258.432005 
L 449.664973 258.432005 
z
" clip-path="url(#p0b36b96680)" style="fill: #1f77b4"/>
   </g>
   <g id="patch_229">
    <path d="M 462.083591 375.203493 
L 465.188246 375.203493 
L 465.188246 268.464485 
L 462.083591 268.464485 
z
" clip-path="url(#p0b36b96680)" style="fill: #1f77b4"/>
   </g>
   <g id="patch_230">
    <path d="M 474.50221 375.203493 
L 477.606865 375.203493 
L 477.606865 263.694945 
L 474.50221 263.694945 
z
" clip-path="url(#p0b36b96680)" style="fill: #1f77b4"/>
   </g>
   <g id="patch_231">
    <path d="M 486.920829 375.203493 
L 490.025484 375.203493 
L 490.025484 356.454268 
L 486.920829 356.454268 
z
" clip-path="url(#p0b36b96680)" style="fill: #1f77b4"/>
   </g>
   <g id="patch_232">
    <path d="M 499.339448 375.203493 
L 502.444103 375.203493 
L 502.444103 349.711126 
L 499.339448 349.711126 
z
" clip-path="url(#p0b36b96680)" style="fill: #1f77b4"/>
   </g>
   <g id="patch_233">
    <path d="M 511.758067 375.203493 
L 514.862722 375.203493 
L 514.862722 336.718242 
L 511.758067 336.718242 
z
" clip-path="url(#p0b36b96680)" style="fill: #1f77b4"/>
   </g>
   <g id="patch_234">
    <path d="M 524.176686 375.203493 
L 527.281341 375.203493 
L 527.281341 320.682721 
L 524.176686 320.682721 
z
" clip-path="url(#p0b36b96680)" style="fill: #1f77b4"/>
   </g>
   <g id="patch_235">
    <path d="M 536.595305 375.203493 
L 539.69996 375.203493 
L 539.69996 320.929421 
L 536.595305 320.929421 
z
" clip-path="url(#p0b36b96680)" style="fill: #1f77b4"/>
   </g>
   <g id="patch_236">
    <path d="M 549.013924 375.203493 
L 552.118578 375.203493 
L 552.118578 284.911173 
L 549.013924 284.911173 
z
" clip-path="url(#p0b36b96680)" style="fill: #1f77b4"/>
   </g>
   <g id="patch_237">
    <path d="M 561.432543 375.203493 
L 564.537197 375.203493 
L 564.537197 264.928447 
L 561.432543 264.928447 
z
" clip-path="url(#p0b36b96680)" style="fill: #1f77b4"/>
   </g>
   <g id="patch_238">
    <path d="M 573.851161 375.203493 
L 576.955816 375.203493 
L 576.955816 260.323374 
L 573.851161 260.323374 
z
" clip-path="url(#p0b36b96680)" style="fill: #1f77b4"/>
   </g>
   <g id="patch_239">
    <path d="M 586.26978 375.203493 
L 589.374435 375.203493 
L 589.374435 260.487841 
L 586.26978 260.487841 
z
" clip-path="url(#p0b36b96680)" style="fill: #1f77b4"/>
   </g>
   <g id="patch_240">
    <path d="M 598.688399 375.203493 
L 601.793054 375.203493 
L 601.793054 260.734541 
L 598.688399 260.734541 
z
" clip-path="url(#p0b36b96680)" style="fill: #1f77b4"/>
   </g>
   <g id="patch_241">
    <path d="M 611.107018 375.203493 
L 614.211673 375.203493 
L 614.211673 259.336573 
L 611.107018 259.336573 
z
" clip-path="url(#p0b36b96680)" style="fill: #1f77b4"/>
   </g>
   <g id="patch_242">
    <path d="M 623.525637 375.203493 
L 626.630292 375.203493 
L 626.630292 260.981241 
L 623.525637 260.981241 
z
" clip-path="url(#p0b36b96680)" style="fill: #1f77b4"/>
   </g>
   <g id="patch_243">
    <path d="M 635.944256 375.203493 
L 639.048911 375.203493 
L 639.048911 261.310175 
L 635.944256 261.310175 
z
" clip-path="url(#p0b36b96680)" style="fill: #1f77b4"/>
   </g>
   <g id="patch_244">
    <path d="M 648.362875 375.203493 
L 651.46753 375.203493 
L 651.46753 260.734541 
L 648.362875 260.734541 
z
" clip-path="url(#p0b36b96680)" style="fill: #1f77b4"/>
   </g>
   <g id="patch_245">
    <path d="M 660.781494 375.203493 
L 663.886148 375.203493 
L 663.886148 259.912207 
L 660.781494 259.912207 
z
" clip-path="url(#p0b36b96680)" style="fill: #1f77b4"/>
   </g>
   <g id="patch_246">
    <path d="M 673.200113 375.203493 
L 676.304767 375.203493 
L 676.304767 375.203493 
L 673.200113 375.203493 
z
" clip-path="url(#p0b36b96680)" style="fill: #1f77b4"/>
   </g>
   <g id="patch_247">
    <path d="M 685.618731 375.203493 
L 688.723386 375.203493 
L 688.723386 375.203493 
L 685.618731 375.203493 
z
" clip-path="url(#p0b36b96680)" style="fill: #1f77b4"/>
   </g>
   <g id="patch_248">
    <path d="M 698.03735 375.203493 
L 701.142005 375.203493 
L 701.142005 375.203493 
L 698.03735 375.203493 
z
" clip-path="url(#p0b36b96680)" style="fill: #1f77b4"/>
   </g>
   <g id="patch_249">
    <path d="M 710.455969 375.203493 
L 713.560624 375.203493 
L 713.560624 375.203493 
L 710.455969 375.203493 
z
" clip-path="url(#p0b36b96680)" style="fill: #1f77b4"/>
   </g>
   <g id="patch_250">
    <path d="M 722.874588 375.203493 
L 725.979243 375.203493 
L 725.979243 375.203493 
L 722.874588 375.203493 
z
" clip-path="url(#p0b36b96680)" style="fill: #1f77b4"/>
   </g>
   <g id="patch_251">
    <path d="M 735.293207 375.203493 
L 738.397862 375.203493 
L 738.397862 351.602495 
L 735.293207 351.602495 
z
" clip-path="url(#p0b36b96680)" style="fill: #1f77b4"/>
   </g>
   <g id="patch_252">
    <path d="M 747.711826 375.203493 
L 750.816481 375.203493 
L 750.816481 358.592338 
L 747.711826 358.592338 
z
" clip-path="url(#p0b36b96680)" style="fill: #1f77b4"/>
   </g>
   <g id="patch_253">
    <path d="M 760.130445 375.203493 
L 763.2351 375.203493 
L 763.2351 342.88575 
L 760.130445 342.88575 
z
" clip-path="url(#p0b36b96680)" style="fill: #1f77b4"/>
   </g>
   <g id="patch_254">
    <path d="M 772.549064 375.203493 
L 775.653718 375.203493 
L 775.653718 341.898949 
L 772.549064 341.898949 
z
" clip-path="url(#p0b36b96680)" style="fill: #1f77b4"/>
   </g>
   <g id="patch_255">
    <path d="M 784.967683 375.203493 
L 788.072337 375.203493 
L 788.072337 347.326356 
L 784.967683 347.326356 
z
" clip-path="url(#p0b36b96680)" style="fill: #1f77b4"/>
   </g>
   <g id="patch_256">
    <path d="M 797.386302 375.203493 
L 800.490956 375.203493 
L 800.490956 338.033977 
L 797.386302 338.033977 
z
" clip-path="url(#p0b36b96680)" style="fill: #1f77b4"/>
   </g>
   <g id="patch_257">
    <path d="M 809.80492 375.203493 
L 812.909575 375.203493 
L 812.909575 334.497939 
L 809.80492 334.497939 
z
" clip-path="url(#p0b36b96680)" style="fill: #1f77b4"/>
   </g>
   <g id="patch_258">
    <path d="M 822.223539 375.203493 
L 825.328194 375.203493 
L 825.328194 305.222834 
L 822.223539 305.222834 
z
" clip-path="url(#p0b36b96680)" style="fill: #1f77b4"/>
   </g>
   <g id="matplotlib.axis_3">
    <g id="xtick_11">
     <g id="line2d_22">
      <path d="M 64.687787 375.203493 
L 64.687787 252.59343 
" clip-path="url(#p0b36b96680)" style="fill: none; stroke: #b0b0b0; stroke-width: 0.8; stroke-linecap: square"/>
     </g>
     <g id="line2d_23">
      <g>
       <use xlink:href="#m886dea2439" x="64.687787" y="375.203493" style="stroke: #000000; stroke-width: 0.8"/>
      </g>
     </g>
     <g id="text_8">
      <!-- Jul 01 -->
      <g transform="translate(45.42418 393.01082) scale(0.16 -0.16)">
       <defs>
        <path id="NimbusRomNo9L-Regu-4a" d="M 1779 3559 
C 1779 4025 1850 4096 2368 4134 
L 2368 4256 
L 531 4256 
L 531 4134 
C 1056 4096 1126 4025 1126 3559 
L 1126 601 
C 1126 314 1050 180 883 180 
C 794 180 755 230 710 386 
C 646 604 544 704 378 704 
C 205 704 64 559 64 389 
C 64 125 326 -64 698 -64 
C 1389 -64 1779 396 1779 1195 
L 1779 3559 
z
" transform="scale(0.015625)"/>
        <path id="NimbusRomNo9L-Regu-75" d="M 3066 320 
L 3034 320 
C 2739 320 2669 390 2669 685 
L 2669 2880 
L 1658 2880 
L 1658 2758 
C 2054 2758 2131 2694 2131 2375 
L 2131 875 
C 2131 697 2099 607 2010 537 
C 1837 397 1638 320 1446 320 
C 1197 320 992 537 992 805 
L 992 2880 
L 58 2880 
L 58 2778 
C 365 2778 454 2682 454 2387 
L 454 770 
C 454 263 762 -64 1229 -64 
C 1466 -64 1715 38 1888 211 
L 2163 486 
L 2163 -45 
L 2189 -58 
C 2509 70 2739 141 3066 230 
L 3066 320 
z
" transform="scale(0.015625)"/>
        <path id="NimbusRomNo9L-Regu-6c" d="M 122 4000 
L 160 4000 
C 230 4000 307 4000 358 4000 
C 563 4000 627 3910 627 3610 
L 627 557 
C 627 211 538 128 134 96 
L 134 0 
L 1645 0 
L 1645 109 
C 1242 109 1165 173 1165 528 
L 1165 4371 
L 1139 4384 
C 806 4275 563 4211 122 4103 
L 122 4000 
z
" transform="scale(0.015625)"/>
       </defs>
       <use xlink:href="#NimbusRomNo9L-Regu-4a" transform="scale(0.996264)"/>
       <use xlink:href="#NimbusRomNo9L-Regu-75" transform="translate(38.753706 0) scale(0.996264)"/>
       <use xlink:href="#NimbusRomNo9L-Regu-6c" transform="translate(88.566907 0) scale(0.996264)"/>
       <use xlink:href="#NimbusRomNo9L-Regu-30" transform="translate(141.168677 0) scale(0.996264)"/>
       <use xlink:href="#NimbusRomNo9L-Regu-31" transform="translate(190.981877 0) scale(0.996264)"/>
      </g>
     </g>
    </g>
    <g id="xtick_12">
     <g id="line2d_24">
      <path d="M 263.385689 375.203493 
L 263.385689 252.59343 
" clip-path="url(#p0b36b96680)" style="fill: none; stroke: #b0b0b0; stroke-width: 0.8; stroke-linecap: square"/>
     </g>
     <g id="line2d_25">
      <g>
       <use xlink:href="#m886dea2439" x="263.385689" y="375.203493" style="stroke: #000000; stroke-width: 0.8"/>
      </g>
     </g>
     <g id="text_9">
      <!-- Jul 17 -->
      <g transform="translate(244.122082 393.01082) scale(0.16 -0.16)">
       <defs>
        <path id="NimbusRomNo9L-Regu-37" d="M 2874 4250 
L 506 4250 
L 128 3310 
L 237 3258 
C 512 3693 627 3776 979 3776 
L 2368 3776 
L 1101 -32 
L 1517 -32 
L 2874 4148 
L 2874 4250 
z
" transform="scale(0.015625)"/>
       </defs>
       <use xlink:href="#NimbusRomNo9L-Regu-4a" transform="scale(0.996264)"/>
       <use xlink:href="#NimbusRomNo9L-Regu-75" transform="translate(38.753706 0) scale(0.996264)"/>
       <use xlink:href="#NimbusRomNo9L-Regu-6c" transform="translate(88.566907 0) scale(0.996264)"/>
       <use xlink:href="#NimbusRomNo9L-Regu-31" transform="translate(141.168677 0) scale(0.996264)"/>
       <use xlink:href="#NimbusRomNo9L-Regu-37" transform="translate(190.981877 0) scale(0.996264)"/>
      </g>
     </g>
    </g>
    <g id="xtick_13">
     <g id="line2d_26">
      <path d="M 437.246354 375.203493 
L 437.246354 252.59343 
" clip-path="url(#p0b36b96680)" style="fill: none; stroke: #b0b0b0; stroke-width: 0.8; stroke-linecap: square"/>
     </g>
     <g id="line2d_27">
      <g>
       <use xlink:href="#m886dea2439" x="437.246354" y="375.203493" style="stroke: #000000; stroke-width: 0.8"/>
      </g>
     </g>
     <g id="text_10">
      <!-- Jul 31 -->
      <g transform="translate(417.982746 393.01082) scale(0.16 -0.16)">
       <defs>
        <path id="NimbusRomNo9L-Regu-33" d="M 979 2138 
C 1357 2138 1504 2125 1658 2068 
C 2054 1927 2304 1562 2304 1120 
C 2304 583 1939 167 1466 167 
C 1293 167 1165 212 928 365 
C 736 480 627 525 518 525 
C 371 525 275 436 275 301 
C 275 77 550 -64 998 -64 
C 1491 -64 1997 103 2298 365 
C 2598 628 2765 999 2765 1428 
C 2765 1754 2662 2055 2477 2253 
C 2349 2394 2227 2471 1946 2592 
C 2387 2893 2547 3130 2547 3476 
C 2547 3994 2138 4352 1549 4352 
C 1229 4352 947 4244 717 4039 
C 525 3866 429 3699 288 3315 
L 384 3290 
C 646 3757 934 3968 1338 3968 
C 1754 3968 2042 3687 2042 3284 
C 2042 3053 1946 2823 1786 2663 
C 1594 2471 1414 2375 979 2221 
L 979 2138 
z
" transform="scale(0.015625)"/>
       </defs>
       <use xlink:href="#NimbusRomNo9L-Regu-4a" transform="scale(0.996264)"/>
       <use xlink:href="#NimbusRomNo9L-Regu-75" transform="translate(38.753706 0) scale(0.996264)"/>
       <use xlink:href="#NimbusRomNo9L-Regu-6c" transform="translate(88.566907 0) scale(0.996264)"/>
       <use xlink:href="#NimbusRomNo9L-Regu-33" transform="translate(141.168677 0) scale(0.996264)"/>
       <use xlink:href="#NimbusRomNo9L-Regu-31" transform="translate(190.981877 0) scale(0.996264)"/>
      </g>
     </g>
    </g>
    <g id="xtick_14">
     <g id="line2d_28">
      <path d="M 648.362875 375.203493 
L 648.362875 252.59343 
" clip-path="url(#p0b36b96680)" style="fill: none; stroke: #b0b0b0; stroke-width: 0.8; stroke-linecap: square"/>
     </g>
     <g id="line2d_29">
      <g>
       <use xlink:href="#m886dea2439" x="648.362875" y="375.203493" style="stroke: #000000; stroke-width: 0.8"/>
      </g>
     </g>
     <g id="text_11">
      <!-- Aug 17 -->
      <g transform="translate(624.675724 393.01082) scale(0.16 -0.16)">
       <defs>
        <path id="NimbusRomNo9L-Regu-67" d="M 3008 2496 
L 3008 2746 
L 2515 2746 
C 2387 2746 2291 2763 2163 2802 
L 2022 2847 
C 1850 2903 1677 2931 1510 2931 
C 915 2931 442 2467 442 1881 
C 442 1476 614 1230 1037 1018 
C 915 906 800 799 762 768 
C 550 588 467 463 467 338 
C 467 206 544 131 806 6 
C 352 -329 179 -543 179 -781 
C 179 -1124 678 -1408 1286 -1408 
C 1766 -1408 2266 -1238 2598 -962 
C 2842 -759 2950 -548 2950 -299 
C 2950 108 2650 384 2176 384 
L 1350 384 
C 1011 384 851 443 851 548 
C 851 678 1062 908 1235 960 
C 1293 953 1338 947 1357 947 
C 1478 934 1562 928 1600 928 
C 1837 928 2093 1026 2291 1203 
C 2502 1387 2598 1617 2598 1945 
C 2598 2135 2566 2286 2477 2496 
L 3008 2496 
z
M 941 -13 
C 1152 -58 1664 -96 1978 -96 
C 2560 -96 2771 -180 2771 -414 
C 2771 -791 2285 -1043 1562 -1043 
C 998 -1043 627 -855 627 -570 
C 627 -420 672 -336 941 -13 
z
M 973 2145 
C 973 2526 1152 2752 1446 2752 
C 1645 2752 1811 2642 1914 2449 
C 2029 2223 2106 1927 2106 1675 
C 2106 1314 1920 1088 1626 1088 
C 1242 1088 973 1507 973 2126 
L 973 2145 
z
" transform="scale(0.015625)"/>
       </defs>
       <use xlink:href="#NimbusRomNo9L-Regu-41" transform="scale(0.996264)"/>
       <use xlink:href="#NimbusRomNo9L-Regu-75" transform="translate(71.929985 0) scale(0.996264)"/>
       <use xlink:href="#NimbusRomNo9L-Regu-67" transform="translate(121.743185 0) scale(0.996264)"/>
       <use xlink:href="#NimbusRomNo9L-Regu-31" transform="translate(196.462986 0) scale(0.996264)"/>
       <use xlink:href="#NimbusRomNo9L-Regu-37" transform="translate(246.276187 0) scale(0.996264)"/>
      </g>
     </g>
    </g>
    <g id="xtick_15">
     <g id="line2d_30">
      <path d="M 822.223539 375.203493 
L 822.223539 252.59343 
" clip-path="url(#p0b36b96680)" style="fill: none; stroke: #b0b0b0; stroke-width: 0.8; stroke-linecap: square"/>
     </g>
     <g id="line2d_31">
      <g>
       <use xlink:href="#m886dea2439" x="822.223539" y="375.203493" style="stroke: #000000; stroke-width: 0.8"/>
      </g>
     </g>
     <g id="text_12">
      <!-- Aug 31 -->
      <g transform="translate(798.536388 393.01082) scale(0.16 -0.16)">
       <use xlink:href="#NimbusRomNo9L-Regu-41" transform="scale(0.996264)"/>
       <use xlink:href="#NimbusRomNo9L-Regu-75" transform="translate(71.929985 0) scale(0.996264)"/>
       <use xlink:href="#NimbusRomNo9L-Regu-67" transform="translate(121.743185 0) scale(0.996264)"/>
       <use xlink:href="#NimbusRomNo9L-Regu-33" transform="translate(196.462986 0) scale(0.996264)"/>
       <use xlink:href="#NimbusRomNo9L-Regu-31" transform="translate(246.276187 0) scale(0.996264)"/>
      </g>
     </g>
    </g>
    <g id="xtick_16">
     <g id="line2d_32">
      <g>
       <use xlink:href="#m9ba964bcde" x="188.873976" y="375.203493" style="stroke: #000000; stroke-width: 0.6"/>
      </g>
     </g>
    </g>
    <g id="xtick_17">
     <g id="line2d_33">
      <g>
       <use xlink:href="#m9ba964bcde" x="313.060165" y="375.203493" style="stroke: #000000; stroke-width: 0.6"/>
      </g>
     </g>
    </g>
    <g id="xtick_18">
     <g id="line2d_34">
      <g>
       <use xlink:href="#m9ba964bcde" x="561.432543" y="375.203493" style="stroke: #000000; stroke-width: 0.6"/>
      </g>
     </g>
    </g>
    <g id="xtick_19">
     <g id="line2d_35">
      <g>
       <use xlink:href="#m9ba964bcde" x="685.618731" y="375.203493" style="stroke: #000000; stroke-width: 0.6"/>
      </g>
     </g>
    </g>
    <g id="xtick_20">
     <g id="line2d_36">
      <g>
       <use xlink:href="#m9ba964bcde" x="809.80492" y="375.203493" style="stroke: #000000; stroke-width: 0.6"/>
      </g>
     </g>
    </g>
    <g id="text_13">
     <!-- Date -->
     <g transform="translate(428.408278 411.269074) scale(0.16 -0.16)">
      <defs>
       <path id="NimbusRomNo9L-Regu-44" d="M 666 679 
C 666 217 589 134 102 134 
L 102 0 
L 1920 0 
C 2662 0 3334 210 3731 568 
C 4147 944 4384 1512 4384 2131 
C 4384 2706 4192 3203 3840 3554 
C 3405 3994 2707 4224 1830 4224 
L 102 4224 
L 102 4102 
C 608 4057 666 4000 666 3525 
L 666 679 
z
M 1318 3738 
C 1318 3936 1389 3987 1651 3987 
C 2202 3987 2618 3885 2925 3668 
C 3424 3323 3686 2775 3686 2087 
C 3686 1334 3424 798 2906 498 
C 2579 314 2208 237 1651 237 
C 1395 237 1318 294 1318 498 
L 1318 3738 
z
" transform="scale(0.015625)"/>
      </defs>
      <use xlink:href="#NimbusRomNo9L-Regu-44" transform="scale(0.996264)"/>
      <use xlink:href="#NimbusRomNo9L-Regu-61" transform="translate(71.929985 0) scale(0.996264)"/>
      <use xlink:href="#NimbusRomNo9L-Regu-74" transform="translate(116.163554 0) scale(0.996264)"/>
      <use xlink:href="#NimbusRomNo9L-Regu-65" transform="translate(143.858723 0) scale(0.996264)"/>
     </g>
    </g>
   </g>
   <g id="matplotlib.axis_4">
    <g id="ytick_4">
     <g id="line2d_37">
      <path d="M 58.478478 375.203493 
L 828.432849 375.203493 
" clip-path="url(#p0b36b96680)" style="fill: none; stroke: #b0b0b0; stroke-width: 0.8; stroke-linecap: square"/>
     </g>
     <g id="line2d_38">
      <g>
       <use xlink:href="#mb8dc6de7ff" x="58.478478" y="375.203493" style="stroke: #000000; stroke-width: 0.8"/>
      </g>
     </g>
     <g id="text_14">
      <!-- $\mathdefault{0}$ -->
      <g transform="translate(43.508365 380.607157) scale(0.16 -0.16)">
       <use xlink:href="#NimbusRomNo9L-Regu-30" transform="scale(0.996264)"/>
      </g>
     </g>
    </g>
    <g id="ytick_5">
     <g id="line2d_39">
      <path d="M 58.478478 334.086772 
L 828.432849 334.086772 
" clip-path="url(#p0b36b96680)" style="fill: none; stroke: #b0b0b0; stroke-width: 0.8; stroke-linecap: square"/>
     </g>
     <g id="line2d_40">
      <g>
       <use xlink:href="#mb8dc6de7ff" x="58.478478" y="334.086772" style="stroke: #000000; stroke-width: 0.8"/>
      </g>
     </g>
     <g id="text_15">
      <!-- $\mathdefault{5}$ -->
      <g transform="translate(43.508365 339.490436) scale(0.16 -0.16)">
       <use xlink:href="#NimbusRomNo9L-Regu-35" transform="scale(0.996264)"/>
      </g>
     </g>
    </g>
    <g id="ytick_6">
     <g id="line2d_41">
      <path d="M 58.478478 292.970051 
L 828.432849 292.970051 
" clip-path="url(#p0b36b96680)" style="fill: none; stroke: #b0b0b0; stroke-width: 0.8; stroke-linecap: square"/>
     </g>
     <g id="line2d_42">
      <g>
       <use xlink:href="#mb8dc6de7ff" x="58.478478" y="292.970051" style="stroke: #000000; stroke-width: 0.8"/>
      </g>
     </g>
     <g id="text_16">
      <!-- $\mathdefault{10}$ -->
      <g transform="translate(35.538253 298.373714) scale(0.16 -0.16)">
       <use xlink:href="#NimbusRomNo9L-Regu-31" transform="scale(0.996264)"/>
       <use xlink:href="#NimbusRomNo9L-Regu-30" transform="translate(49.8132 0) scale(0.996264)"/>
      </g>
     </g>
    </g>
    <g id="text_17">
     <!-- Water (L) -->
     <g transform="translate(28.087327 344.90195) rotate(-90) scale(0.16 -0.16)">
      <use xlink:href="#NimbusRomNo9L-Regu-57" transform="scale(0.996264)"/>
      <use xlink:href="#NimbusRomNo9L-Regu-61" transform="translate(86.077326 0) scale(0.996264)"/>
      <use xlink:href="#NimbusRomNo9L-Regu-74" transform="translate(130.310895 0) scale(0.996264)"/>
      <use xlink:href="#NimbusRomNo9L-Regu-65" transform="translate(158.006064 0) scale(0.996264)"/>
      <use xlink:href="#NimbusRomNo9L-Regu-72" transform="translate(202.239633 0) scale(0.996264)"/>
      <use xlink:href="#NimbusRomNo9L-Regu-28" transform="translate(260.321463 0) scale(0.996264)"/>
      <use xlink:href="#NimbusRomNo9L-Regu-4c" transform="translate(293.496693 0) scale(0.996264)"/>
      <use xlink:href="#NimbusRomNo9L-Regu-29" transform="translate(354.368323 0) scale(0.996264)"/>
     </g>
    </g>
   </g>
   <g id="patch_259">
    <path d="M 58.478478 375.203493 
L 58.478478 252.59343 
" style="fill: none; stroke: #000000; stroke-width: 0.8; stroke-linejoin: miter; stroke-linecap: square"/>
   </g>
   <g id="patch_260">
    <path d="M 828.432849 375.203493 
L 828.432849 252.59343 
" style="fill: none; stroke: #000000; stroke-width: 0.8; stroke-linejoin: miter; stroke-linecap: square"/>
   </g>
   <g id="patch_261">
    <path d="M 58.478478 375.203493 
L 828.432849 375.203493 
" style="fill: none; stroke: #000000; stroke-width: 0.8; stroke-linejoin: miter; stroke-linecap: square"/>
   </g>
   <g id="patch_262">
    <path d="M 58.478478 252.59343 
L 828.432849 252.59343 
" style="fill: none; stroke: #000000; stroke-width: 0.8; stroke-linejoin: miter; stroke-linecap: square"/>
   </g>
   <g id="text_18">
    <!-- Errano (2024) -->
    <g transform="translate(389.542892 246.59343) scale(0.192 -0.192)">
     <defs>
      <path id="NimbusRomNo9L-Regu-6f" d="M 1600 2944 
C 768 2944 186 2330 186 1446 
C 186 582 781 -64 1587 -64 
C 2394 -64 3008 614 3008 1498 
C 3008 2336 2419 2944 1600 2944 
z
M 1517 2765 
C 2054 2765 2432 2150 2432 1274 
C 2432 550 2144 115 1664 115 
C 1414 115 1178 269 1043 525 
C 864 858 762 1306 762 1760 
C 762 2368 1062 2765 1517 2765 
z
" transform="scale(0.015625)"/>
     </defs>
     <use xlink:href="#NimbusRomNo9L-Regu-45" transform="scale(0.996264)"/>
     <use xlink:href="#NimbusRomNo9L-Regu-72" transform="translate(60.871631 0) scale(0.996264)"/>
     <use xlink:href="#NimbusRomNo9L-Regu-72" transform="translate(94.04686 0) scale(0.996264)"/>
     <use xlink:href="#NimbusRomNo9L-Regu-61" transform="translate(127.22209 0) scale(0.996264)"/>
     <use xlink:href="#NimbusRomNo9L-Regu-6e" transform="translate(171.455659 0) scale(0.996264)"/>
     <use xlink:href="#NimbusRomNo9L-Regu-6f" transform="translate(221.268859 0) scale(0.996264)"/>
     <use xlink:href="#NimbusRomNo9L-Regu-28" transform="translate(295.98866 0) scale(0.996264)"/>
     <use xlink:href="#NimbusRomNo9L-Regu-32" transform="translate(329.16389 0) scale(0.996264)"/>
     <use xlink:href="#NimbusRomNo9L-Regu-30" transform="translate(378.97709 0) scale(0.996264)"/>
     <use xlink:href="#NimbusRomNo9L-Regu-32" transform="translate(428.790291 0) scale(0.996264)"/>
     <use xlink:href="#NimbusRomNo9L-Regu-34" transform="translate(478.603491 0) scale(0.996264)"/>
     <use xlink:href="#NimbusRomNo9L-Regu-29" transform="translate(528.416692 0) scale(0.996264)"/>
    </g>
   </g>
  </g>
 </g>
 <defs>
  <clipPath id="p1276e6a990">
   <rect x="58.478478" y="84.88" width="769.954371" height="122.610063"/>
  </clipPath>
  <clipPath id="p0b36b96680">
   <rect x="58.478478" y="252.59343" width="769.954371" height="122.610063"/>
  </clipPath>
 </defs>
</svg>
